<?xml version="1.0" encoding="UTF-8" standalone="no"?>
<svg
   xmlns:dc="http://purl.org/dc/elements/1.1/"
   xmlns:cc="http://creativecommons.org/ns#"
   xmlns:rdf="http://www.w3.org/1999/02/22-rdf-syntax-ns#"
   xmlns:svg="http://www.w3.org/2000/svg"
   xmlns="http://www.w3.org/2000/svg"
   xmlns:sodipodi="http://sodipodi.sourceforge.net/DTD/sodipodi-0.dtd"
   xmlns:inkscape="http://www.inkscape.org/namespaces/inkscape"
   version="1.1"
   id="svg785"
   width="313.47595"
   height="625.88586"
   viewBox="0 0 313.47595 625.88587"
   sodipodi:docname="Adventurer.svg"
   inkscape:version="1.0.1 (3bc2e813f5, 2020-09-07)">
  <metadata
     id="metadata791">
    <rdf:RDF>
      <cc:Work
         rdf:about="">
        <dc:format>image/svg+xml</dc:format>
        <dc:type
           rdf:resource="http://purl.org/dc/dcmitype/StillImage" />
        <dc:title></dc:title>
      </cc:Work>
    </rdf:RDF>
  </metadata>
  <defs
     id="defs789">
    <filter
       style="color-interpolation-filters:sRGB"
       inkscape:label="Colorize"
       id="filter817">
      <feColorMatrix
         values="-1 0 0 0 1 0 -1 0 0 1 0 0 -1 0 1 -0.21 -0.72 -0.07 2 0 "
         result="fbSourceGraphic"
         id="feColorMatrix815" />
      <feColorMatrix
         result="fbSourceGraphicAlpha"
         in="fbSourceGraphic"
         values="0 0 0 -1 0 0 0 0 -1 0 0 0 0 -1 0 0 0 0 1 0"
         id="feColorMatrix819" />
      <feComposite
         in2="fbSourceGraphic"
         id="feComposite821"
         operator="arithmetic"
         k1="0.463936"
         k2="1"
         result="composite1"
         in="fbSourceGraphic"
         k3="0"
         k4="0" />
      <feColorMatrix
         id="feColorMatrix823"
         in="composite1"
         values="1"
         type="saturate"
         result="colormatrix1" />
      <feFlood
         id="feFlood825"
         flood-opacity="1"
         flood-color="rgb(0,177,255)"
         result="flood1" />
      <feBlend
         in2="colormatrix1"
         id="feBlend827"
         in="flood1"
         mode="multiply"
         result="blend1" />
      <feBlend
         in2="blend1"
         id="feBlend829"
         mode="screen"
         result="blend2" />
      <feColorMatrix
         id="feColorMatrix831"
         in="blend2"
         values="1"
         type="saturate"
         result="colormatrix2" />
      <feComposite
         in2="fbSourceGraphic"
         id="feComposite833"
         in="colormatrix2"
         operator="in"
         result="composite2" />
    </filter>
  </defs>
  <sodipodi:namedview
     pagecolor="#ffffff"
     bordercolor="#666666"
     borderopacity="1"
     objecttolerance="10"
     gridtolerance="10"
     guidetolerance="10"
     inkscape:pageopacity="0"
     inkscape:pageshadow="2"
     inkscape:window-width="1920"
     inkscape:window-height="1028"
     id="namedview787"
     showgrid="false"
     inkscape:zoom="0.88250238"
     inkscape:cx="-62.838856"
     inkscape:cy="372.70164"
     inkscape:window-x="0"
     inkscape:window-y="0"
     inkscape:window-maximized="1"
     inkscape:current-layer="g793" />
  <g
     inkscape:groupmode="layer"
     inkscape:label="Image"
     id="g793"
     transform="translate(1.0960726,-17.451353)">
    <path
       style="fill:#000000;stroke-width:1.33333;filter:url(#filter817)"
       d="m 139.08666,634.42033 c -16.49269,-11.00827 -28.28389,-2.05161 -31.20943,-15.69294 -1.27935,-5.96543 -3.30654,-8.68424 -19.312351,-25.90126 -31.20999,-33.57172 -31.15591,-40.42008 0.53624,-67.90287 l 17.681841,-15.33333 -0.7744,-47.88471 c -0.42592,-26.33658 -0.7744,-62.48659 -0.7744,-80.33333 V 348.92326 H 85.433119 c -31.74737,0 -35.13969,-4.38917 -35.22769,-24.7948 -0.0433,-10.04506 -4.1985,-17.53698 19.02873,-39.91511 11.36667,-10.95116 31.368511,-30.32399 44.448551,-43.05075 39.91812,-38.83997 40.3802,-38.82 84.88479,3.66918 67.6292,64.56656 67.86339,64.86285 63.85411,80.78517 -3.82972,15.20918 -13.47578,20.21031 -41.52078,21.52703 l -18.33333,0.86075 0.0491,79.45926 0.0491,79.45927 19.78571,20.86565 c 31.41503,33.12968 23.83375,35.66852 -9.88568,61.93891 -16.34172,12.73163 -9.99816,18.24351 -9.99816,22.66521 -49.21056,20.058 -9.45277,20.6654 -63.48091,22.0273 z M 42.438974,527.80742 c -30.69012,-7.21745 -44.7897407,-25.92234 -31.233011,-48.90893 8.88803,-15.0704 16.536206,-31.29885 29.810566,-34.69423 41.73794,-10.67593 60.730701,11.24271 48.19719,55.62208 -5.55303,19.66247 -30.081155,31.90695 -46.774745,27.98108 z m 208.900096,6.31141 c -52.50776,-18.05738 -43.12853,-87.80665 12.36643,-91.96377 7.80743,-0.58485 16.69096,-0.35696 18.38329,-0.21669 16.93493,1.40361 29.6732,6.03111 28.5505,19.82132 -3.67077,45.08845 -22.26754,85.09466 -59.30022,72.35914 z M 73.632229,194.31056 c -9.40671,-5.7356 -9.10276,-2.67739 -8.73088,-87.84914 0.41977,-96.13831 -2.587773,-77.007216 34.676837,-77.375695 29.943764,-0.296088 34.989304,-8.687366 34.989304,6.809134 0,7.065436 0,7.065436 17.66667,24.682131 l 17.66667,17.616697 0.41559,-22.301888 c 0.62468,-33.522664 6.6586,-26.002395 32.79379,-28.243143 25.33213,-2.171899 31.68897,-8.597349 37.02746,2.430508 2.71982,5.61838 1.79871,138.918606 -1.06268,153.788206 -1.90047,9.87606 -18.62857,14.95792 -38.55952,11.71408 -10.32643,-1.68066 -11.03249,-2.23678 -38.4398,-30.276 -27.99316,-28.63856 -25.89195,-28.60732 -27.07876,-0.40252 -1.28552,30.55072 -2.88586,32.01035 -35.096081,32.01035 -19.47311,0 -22.49028,-0.29893 -26.2686,-2.60272 z"
       id="path797"
       sodipodi:nodetypes="cssscsscssssssscccssccssssssssssssssscsssssssss" />
    <path
       style="fill:#000000;stroke-width:5.27653"
       d="m 121.67973,638.10575 c -6.2138,-2.55493 -12.8589,-9.66045 -14.76684,-15.78996 -1.90799,-6.12954 -12.898528,-22.25348 -24.42344,-35.83095 -15.090919,-17.77865 -20.300406,-28.17492 -18.617106,-37.1534 2.017523,-10.76128 0.255918,-12.467 -12.87403,-12.467 -49.4309787,0 -69.582773,-49.25032 -34.287937,-83.79863 29.044392,-28.43003 70.301971,-28.3157 82.735687,0.22938 4.160026,9.55046 4.576116,8.41198 2.317966,-6.34243 -1.51369,-9.89033 -2.752164,-34.46622 -2.752164,-54.61312 0,-36.6307 0,-36.6307 -17.126509,-36.6307 -57.763965,0 -54.777087,-36.25184 7.981912,-96.87601 64.801601,-62.5973 66.732161,-62.60273 129.414541,-0.36204 59.95264,59.53027 62.33225,86.57534 8.4027,95.49879 -18.93733,3.13344 -18.93733,3.13344 -18.72809,59.71341 0.19517,52.80619 0.72104,55.6186 7.88287,42.16559 18.98312,-35.65833 87.29527,-33.49674 94.00559,2.97461 7.73505,42.04111 -14.58829,78.04115 -48.39273,78.04115 -15.99,0 -17.12651,1.20089 -17.12651,18.09644 0,14.01077 -4.12918,21.79306 -18.28923,34.46991 -10.05908,9.0054 -18.28923,18.95336 -18.28923,22.1065 0,24.50328 -52.86028,40.63349 -87.06745,26.56846 z m 63.17949,-19.03625 c 4.51631,-4.605 8.21156,-12.39735 8.21165,-17.31637 7e-5,-4.91893 8.23022,-15.6393 18.28922,-23.82303 22.80285,-18.55171 22.80285,-23.85823 -1.5e-4,-46.39376 -28.3192,-27.98706 -28.81364,-191.81181 -0.5789,-191.81181 47.22182,0 46.56156,-16.78888 -2.61322,-66.44957 -54.55691,-55.09602 -48.93639,-55.08255 -106.5432,-0.25534 -54.094059,51.48413 -56.005727,62.67003 -11.222078,65.66466 34.487178,2.3061 38.637448,158.76818 5.139258,193.7471 -19.146541,19.99287 -19.146541,19.99287 2.612758,44.0625 11.967612,13.23824 21.759262,27.60047 21.759262,31.91605 0,18.33736 49.45472,26.45432 64.9454,10.65941 z M 64.966052,512.45155 c 31.278955,-20.89726 25.250802,-71.67392 -7.529489,-63.42266 -17.202813,4.33019 -42.032545,28.47874 -42.032545,40.87942 0,24.38715 27.844828,37.05232 49.562034,22.54324 z M 289.19943,497.52468 c 15.26018,-31.86831 7.34059,-48.73726 -22.5646,-48.06318 -37.37961,0.84259 -54.30021,33.63444 -30.61826,59.33771 18.12744,19.6747 40.64905,14.90022 53.18286,-11.27453 z M 102.63309,479.68869 c -1.3249,-5.18407 -2.49601,-2.23264 -2.60253,6.55872 -0.106599,8.79138 0.97751,13.03291 2.40889,9.42559 1.43138,-3.6073 1.51854,-10.80023 0.1936,-15.98431 z M 68.704029,200.12813 c -9.704639,-9.8952 -8.695505,-166.076936 1.126746,-174.388785 13.690265,-11.584992 68.089665,-5.05848 69.970575,8.394688 2.7179,19.439728 21.91641,33.819135 21.91641,16.41509 0,-26.938329 57.10543,-44.7463712 77.3373,-24.117253 10.30289,10.505219 8.60223,160.96707 -1.9409,171.71725 -17.4386,17.78103 -47.28273,10.84188 -72.83777,-16.93575 -23.28351,-25.30852 -23.28351,-25.30852 -23.37205,-6.39372 -0.0485,10.40311 -2.9103,21.79194 -6.35912,25.30848 -8.13625,8.29599 -57.704984,8.29599 -65.841191,0 z M 127.25883,163.897 c 4.31938,-33.20047 8.39146,-33.16754 43.14781,0.34925 49.19097,47.43639 56.62977,40.7416 56.62977,-50.96603 0,-74.593498 0,-74.593498 -23.51471,-74.593498 -23.51471,0 -23.51471,0 -25.09415,27.972563 -1.06898,18.931421 -3.82812,27.972551 -8.53659,27.972551 -9.24821,0 -44.75162,-40.411866 -44.75162,-50.938699 0,-6.449836 -4.91545,-7.920554 -22.20836,-6.644809 -22.208348,1.638394 -22.208348,1.638394 -23.678526,70.622002 -1.76521,82.82706 -1.753453,82.86741 24.147686,82.86741 20.39278,0 20.39278,0 23.85869,-26.64054 z"
       id="path813" />
  </g>
</svg>
