<?xml version="1.0" encoding="UTF-8" standalone="no"?>
<svg
   xmlns:dc="http://purl.org/dc/elements/1.1/"
   xmlns:cc="http://creativecommons.org/ns#"
   xmlns:rdf="http://www.w3.org/1999/02/22-rdf-syntax-ns#"
   xmlns:svg="http://www.w3.org/2000/svg"
   xmlns="http://www.w3.org/2000/svg"
   xmlns:sodipodi="http://sodipodi.sourceforge.net/DTD/sodipodi-0.dtd"
   xmlns:inkscape="http://www.inkscape.org/namespaces/inkscape"
   version="1.1"
   id="svg785"
   width="512"
   height="512"
   viewBox="0 0 512 512"
   sodipodi:docname="Adventurer.svg"
   inkscape:version="1.0.1 (3bc2e813f5, 2020-09-07)">
  <metadata
     id="metadata791">
    <rdf:RDF>
      <cc:Work
         rdf:about="">
        <dc:format>image/svg+xml</dc:format>
        <dc:type
           rdf:resource="http://purl.org/dc/dcmitype/StillImage" />
        <dc:title></dc:title>
      </cc:Work>
    </rdf:RDF>
  </metadata>
  <defs
     id="defs789">
    <filter
       style="color-interpolation-filters:sRGB"
       inkscape:label="Colorize"
       id="filter817">
      <feColorMatrix
         values="-1 0 0 0 1 0 -1 0 0 1 0 0 -1 0 1 -0.21 -0.72 -0.07 2 0 "
         result="fbSourceGraphic"
         id="feColorMatrix815" />
      <feColorMatrix
         result="fbSourceGraphicAlpha"
         in="fbSourceGraphic"
         values="0 0 0 -1 0 0 0 0 -1 0 0 0 0 -1 0 0 0 0 1 0"
         id="feColorMatrix819" />
      <feComposite
         in2="fbSourceGraphic"
         id="feComposite821"
         operator="arithmetic"
         k1="0.463936"
         k2="1"
         result="composite1"
         in="fbSourceGraphic"
         k3="0"
         k4="0" />
      <feColorMatrix
         id="feColorMatrix823"
         in="composite1"
         values="1"
         type="saturate"
         result="colormatrix1" />
      <feFlood
         id="feFlood825"
         flood-opacity="1"
         flood-color="rgb(0,177,255)"
         result="flood1" />
      <feBlend
         in2="colormatrix1"
         id="feBlend827"
         in="flood1"
         mode="multiply"
         result="blend1" />
      <feBlend
         in2="blend1"
         id="feBlend829"
         mode="screen"
         result="blend2" />
      <feColorMatrix
         id="feColorMatrix831"
         in="blend2"
         values="1"
         type="saturate"
         result="colormatrix2" />
      <feComposite
         in2="fbSourceGraphic"
         id="feComposite833"
         in="colormatrix2"
         operator="in"
         result="composite2" />
    </filter>
  </defs>
  <sodipodi:namedview
     pagecolor="#ffffff"
     bordercolor="#666666"
     borderopacity="1"
     objecttolerance="10"
     gridtolerance="10"
     guidetolerance="10"
     inkscape:pageopacity="0"
     inkscape:pageshadow="2"
     inkscape:window-width="1920"
     inkscape:window-height="1028"
     id="namedview787"
     showgrid="false"
     inkscape:zoom="0.88250238"
     inkscape:cx="-53.892283"
     inkscape:cy="249.66431"
     inkscape:window-x="0"
     inkscape:window-y="0"
     inkscape:window-maximized="1"
     inkscape:current-layer="g793"
     inkscape:document-rotation="0" />
  <g
     inkscape:groupmode="layer"
     inkscape:label="Image"
     id="g793"
     transform="translate(1.0960726,-17.451353)">
    <path
       style="fill:#000000;stroke-width:1.33333;filter:url(#filter817)"
       d="m 139.08666,634.42033 c -16.49269,-11.00827 -28.28389,-2.05161 -31.20943,-15.69294 -1.27935,-5.96543 -3.30654,-8.68424 -19.312351,-25.90126 -31.20999,-33.57172 -31.15591,-40.42008 0.53624,-67.90287 l 17.681841,-15.33333 -0.7744,-47.88471 c -0.42592,-26.33658 -0.7744,-62.48659 -0.7744,-80.33333 V 348.92326 H 85.433119 c -31.74737,0 -35.13969,-4.38917 -35.22769,-24.7948 -0.0433,-10.04506 -4.1985,-17.53698 19.02873,-39.91511 11.36667,-10.95116 31.368511,-30.32399 44.448551,-43.05075 39.91812,-38.83997 40.3802,-38.82 84.88479,3.66918 67.6292,64.56656 67.86339,64.86285 63.85411,80.78517 -3.82972,15.20918 -13.47578,20.21031 -41.52078,21.52703 l -18.33333,0.86075 0.0491,79.45926 0.0491,79.45927 19.78571,20.86565 c 31.41503,33.12968 23.83375,35.66852 -9.88568,61.93891 -16.34172,12.73163 -9.99816,18.24351 -9.99816,22.66521 -49.21056,20.058 -9.45277,20.6654 -63.48091,22.0273 z M 42.438974,527.80742 c -30.69012,-7.21745 -44.7897407,-25.92234 -31.233011,-48.90893 8.88803,-15.0704 16.536206,-31.29885 29.810566,-34.69423 41.73794,-10.67593 60.730701,11.24271 48.19719,55.62208 -5.55303,19.66247 -30.081155,31.90695 -46.774745,27.98108 z m 208.900096,6.31141 c -52.50776,-18.05738 -43.12853,-87.80665 12.36643,-91.96377 7.80743,-0.58485 16.69096,-0.35696 18.38329,-0.21669 16.93493,1.40361 29.6732,6.03111 28.5505,19.82132 -3.67077,45.08845 -22.26754,85.09466 -59.30022,72.35914 z M 73.632229,194.31056 c -9.40671,-5.7356 -9.10276,-2.67739 -8.73088,-87.84914 0.41977,-96.13831 -2.587773,-77.007216 34.676837,-77.375695 29.943764,-0.296088 34.989304,-8.687366 34.989304,6.809134 0,7.065436 0,7.065436 17.66667,24.682131 l 17.66667,17.616697 0.41559,-22.301888 c 0.62468,-33.522664 6.6586,-26.002395 32.79379,-28.243143 25.33213,-2.171899 26.6544,-3.846916 31.99289,7.180941 2.71982,5.61838 6.83328,134.168173 3.97189,149.037773 -1.90047,9.87606 -18.62857,14.95792 -38.55952,11.71408 -10.32643,-1.68066 -11.03249,-2.23678 -38.4398,-30.276 -27.99316,-28.63856 -25.89195,-28.60732 -27.07876,-0.40252 -1.28552,30.55072 -2.88586,32.01035 -35.096081,32.01035 -19.47311,0 -22.49028,-0.29893 -26.2686,-2.60272 z"
       id="path797"
       sodipodi:nodetypes="cssscsscssssssscccssccssssssssssssssscsssssssss"
       transform="matrix(0.77981544,0,0,0.77981544,134.96706,15.005122)" />
    <path
       style="fill:#000000;stroke-width:4.11472"
       d="m 229.85479,512.60985 c -4.84561,-1.99237 -10.02756,-7.53338 -11.51541,-12.31326 -1.48788,-4.77991 -10.05847,-17.35361 -19.04578,-27.94152 -11.76813,-13.86408 -15.83057,-21.97125 -14.5179,-28.9728 1.57329,-8.39181 0.19956,-9.72197 -10.03937,-9.72197 -38.54704,0 -54.26172,-38.40615 -26.73827,-65.34746 22.64927,-22.17017 54.82257,-22.08102 64.51857,0.17888 3.24406,7.44759 3.56853,6.55979 1.80759,-4.94593 -1.1804,-7.71263 -2.14618,-26.87729 -2.14618,-42.58815 0,-28.56519 0,-28.56519 -13.35552,-28.56519 -45.04523,0 -42.71602,-28.26974 6.22442,-75.54541 50.53329,-48.81434 52.03877,-48.81858 100.91946,-0.28232 46.752,46.42263 48.60765,67.51278 6.55255,74.47143 -14.76761,2.4435 -14.76761,2.4435 -14.60445,46.56544 0.1522,41.17909 0.56228,43.37224 6.14719,32.88138 14.80333,-27.80692 68.07419,-26.12128 73.30701,2.31964 6.03191,32.78431 -11.37618,60.85769 -37.73741,60.85769 -12.46924,0 -13.35551,0.93648 -13.35551,14.1119 0,10.9258 -3.22,16.99455 -14.26223,26.88016 -7.84422,7.02255 -14.26221,14.78012 -14.26221,17.23899 0,19.10804 -41.22127,31.68663 -67.89655,20.7185 z m 49.26835,-14.84477 c 3.52188,-3.59104 6.4035,-9.66764 6.40357,-13.50357 5e-5,-3.83585 6.41805,-12.19576 14.26221,-18.57756 17.78202,-14.46692 17.78202,-18.60502 -1.2e-4,-36.17857 -22.08375,-21.82475 -22.46932,-149.57782 -0.45143,-149.57782 36.8243,0 36.30943,-13.09222 -2.03784,-51.8184 -42.54431,-42.96472 -38.16134,-42.95422 -83.08402,-0.19912 -42.18339,40.14813 -43.67414,48.87106 -8.75115,51.20632 26.89364,1.79833 30.13008,123.80988 4.00767,151.08698 -14.93078,15.59075 -14.93078,15.59075 2.03747,34.36062 9.33252,10.32338 16.96821,21.52328 16.96821,24.88863 0,14.29975 38.56555,20.62948 50.64543,8.31237 z m -93.49455,-83.14232 c 24.39182,-16.296 19.69096,-55.89243 -5.87162,-49.45796 -13.41501,3.37673 -32.77763,22.20815 -32.77763,31.8784 0,19.01747 21.71384,28.89396 38.64925,17.57956 z m 174.86065,-11.6402 c 11.90012,-24.85141 5.72431,-38.00607 -17.59622,-37.48041 -29.1492,0.65706 -42.34415,26.22865 -23.8766,46.27246 14.13607,15.34264 31.69877,11.61943 41.47282,-8.79205 z M 215.00192,389.07378 c -1.03317,-4.04262 -1.94642,-1.74105 -2.02949,5.11458 -0.0831,6.85566 0.76228,10.16327 1.87849,7.35022 1.11622,-2.81303 1.18418,-8.42217 0.15097,-12.4648 z m -26.4584,-218.00564 c -7.56783,-7.71644 -6.78089,-129.509368 0.87865,-135.991079 -0.13031,-2.400675 52.54621,-8.045081 54.56414,6.546306 2.09691,15.162532 17.12381,26.372648 17.09075,12.800741 -0.0202,-8.288448 -0.41471,-16.728773 5.50852,-18.11463 27.64575,-6.468269 53.82196,-1.251088 54.51375,2.728165 1.65686,3.026843 6.99471,122.104077 -1.22699,130.487237 -13.59889,13.86591 -36.8718,8.45466 -56.80002,-13.20677 -18.15683,-19.73597 -18.15683,-19.73597 -18.22589,-4.98592 -0.0378,8.1125 -2.26949,16.9937 -4.95893,19.73595 -6.34477,6.46934 -44.99924,6.46934 -51.34398,0 z m 45.66194,-28.2536 c 3.36832,-25.89024 6.54379,-25.86456 33.64732,0.27235 38.35989,36.99163 44.16077,31.77093 44.16077,-39.7441 0,-58.169165 0,-58.169165 -18.33713,-58.169165 -18.33713,0 -18.33713,0 -19.5688,21.813434 -0.83361,14.763017 -2.98523,21.813434 -6.65696,21.813434 -7.2119,0 -34.89801,-31.513803 -34.89801,-39.722785 0,-5.02968 -3.83314,-6.176573 -17.31842,-5.18173 -17.31842,1.277647 -17.31842,1.277647 -18.46488,55.072132 -1.37655,64.58983 -1.36738,64.62129 18.83074,64.62129 15.9026,0 15.9026,0 18.60537,-20.77471 z"
       id="path813"
       sodipodi:nodetypes="ssssssssssssscssssssscssssscssssccsssssssssssssscssscsscssscsscsscssss" />
  </g>
</svg>
