<?xml version="1.0" encoding="UTF-8" standalone="no"?>
<svg
   xmlns:dc="http://purl.org/dc/elements/1.1/"
   xmlns:cc="http://creativecommons.org/ns#"
   xmlns:rdf="http://www.w3.org/1999/02/22-rdf-syntax-ns#"
   xmlns:svg="http://www.w3.org/2000/svg"
   xmlns="http://www.w3.org/2000/svg"
   xmlns:sodipodi="http://sodipodi.sourceforge.net/DTD/sodipodi-0.dtd"
   xmlns:inkscape="http://www.inkscape.org/namespaces/inkscape"
   version="1.1"
   id="svg428"
   width="574.34137"
   height="583.0094"
   viewBox="0 0 574.34137 583.0094"
   sodipodi:docname="Doctor.svg"
   inkscape:version="1.0.1 (3bc2e813f5, 2020-09-07)">
  <metadata
     id="metadata434">
    <rdf:RDF>
      <cc:Work
         rdf:about="">
        <dc:format>image/svg+xml</dc:format>
        <dc:type
           rdf:resource="http://purl.org/dc/dcmitype/StillImage" />
        <dc:title></dc:title>
      </cc:Work>
    </rdf:RDF>
  </metadata>
  <defs
     id="defs432">
    <filter
       style="color-interpolation-filters:sRGB"
       inkscape:label="Colorize"
       id="filter458">
      <feColorMatrix
         values="-1 0 0 0 1 0 -1 0 0 1 0 0 -1 0 1 -0.21 -0.72 -0.07 2 0 "
         result="fbSourceGraphic"
         id="feColorMatrix456" />
      <feColorMatrix
         result="fbSourceGraphicAlpha"
         in="fbSourceGraphic"
         values="0 0 0 -1 0 0 0 0 -1 0 0 0 0 -1 0 0 0 0 1 0"
         id="feColorMatrix460" />
      <feComposite
         in2="fbSourceGraphic"
         id="feComposite462"
         operator="arithmetic"
         k1="0.463936"
         k2="1"
         result="composite1"
         in="fbSourceGraphic"
         k3="0"
         k4="0" />
      <feColorMatrix
         id="feColorMatrix464"
         in="composite1"
         values="1"
         type="saturate"
         result="colormatrix1" />
      <feFlood
         id="feFlood466"
         flood-opacity="1"
         flood-color="rgb(0,177,255)"
         result="flood1" />
      <feBlend
         in2="colormatrix1"
         id="feBlend468"
         in="flood1"
         mode="multiply"
         result="blend1" />
      <feBlend
         in2="blend1"
         id="feBlend470"
         mode="screen"
         result="blend2" />
      <feColorMatrix
         id="feColorMatrix472"
         in="blend2"
         values="1"
         type="saturate"
         result="colormatrix2" />
      <feComposite
         in2="fbSourceGraphic"
         id="feComposite474"
         in="colormatrix2"
         operator="in"
         result="composite2" />
    </filter>
  </defs>
  <sodipodi:namedview
     pagecolor="#ffffff"
     bordercolor="#666666"
     borderopacity="1"
     objecttolerance="10"
     gridtolerance="10"
     guidetolerance="10"
     inkscape:pageopacity="0"
     inkscape:pageshadow="2"
     inkscape:window-width="1920"
     inkscape:window-height="1028"
     id="namedview430"
     showgrid="false"
     inkscape:zoom="0.62402342"
     inkscape:cx="-83.663321"
     inkscape:cy="167.11688"
     inkscape:window-x="0"
     inkscape:window-y="0"
     inkscape:window-maximized="1"
     inkscape:current-layer="g436" />
  <g
     inkscape:groupmode="layer"
     inkscape:label="Image"
     id="g436"
     transform="translate(-55.145686,-33.145573)">
    <path
       style="fill:#000000;stroke-width:1.33333;filter:url(#filter458)"
       d="m 286.66668,600.02119 c -49.78177,-1.4876 -52.72162,-1.79984 -55.02989,-5.8446 -2.25808,-3.9568 -3.63269,-98.30867 -1.86741,-128.17657 2.08567,-35.28886 1.62668,-36.09793 -19.76937,-34.84809 -33.6798,1.96736 -118.583872,0.80906 -122.000007,-1.6644 -6.941484,-5.02598 -7.148712,-8.01664 -7.078474,-102.15419 0.08661,-116.08097 0.184082,-116.89831 14.13243,-118.50765 9.894561,-1.14162 120.939591,-1.40458 124.946051,-0.29587 9.01956,2.49599 8.66666,5.81901 8.66666,-81.61024 0,-89.106905 -0.83312,-82.69539 11.11023,-85.502445 54.85369,-5.046104 111.12632,-1.794925 165.12663,-1.509146 23.54124,0.09457 43.12834,1.986168 44.56043,4.303359 3.48687,5.641852 4.1367,21.23327 3.2144,77.122482 -0.52641,31.89974 -1.04438,63.72714 -1.15106,70.72756 -0.32615,21.40416 -6.72684,19.59732 66.83989,18.86815 71.40682,-0.70776 73.24428,-0.5802 77.65922,5.39131 8.01224,10.83714 6.00336,207.97794 -2.21064,216.9405 -2.23174,2.43509 -77.67455,4.65266 -114.81053,3.37473 -29.40232,-1.0118 -27.4892,-2.93435 -26.55918,26.69015 1.91216,60.90928 0.83297,127.883 -2.11123,131.02211 -4.36923,4.65844 -9.9504,5.45944 -43.66815,6.26715 -43.41024,1.33021 -81.89796,0.55674 -120,-0.5943 z"
       id="path440"
       sodipodi:nodetypes="cssssssssccssssssssscc" />
    <path
       style="fill:#000000;stroke-width:5.62208"
       d="m 224.81067,610.62346 c -12.70469,-4.80144 -13.04532,-7.03623 -13.03461,-85.515 0.005,-26.86158 0.39745,-72.07859 -6.71172,-76.83616 -3.1249,-8.17738 -40.50934,-2.61389 -64.12639,-2.04654 -91.447882,2.19679 -85.718246,10.00867 -85.718246,-116.86979 0,-136.07113 -5.818781,-127.42228 85.727286,-127.42228 24.80608,0 56.7908,3.81388 68.27708,-3.64669 8.97403,-7.4915 4.4576,-48.96761 3.61581,-75.27478 -3.08202,-96.321767 -11.72062,-90.29411 128.3114,-89.530443 141.46753,0.771512 128.30993,-8.423366 130.22977,91.008353 0.53353,27.63167 -0.83034,72.58998 6.61001,80.36883 3.93377,5.85 45.06599,2.52619 70.10371,2.52619 90.6808,0 82.52242,-13.25454 80.04484,130.04491 -2.15292,124.52113 5.14166,115.07476 -88.94868,115.1874 -23.2476,0.0287 -59.04008,-4.24757 -64.26008,3.19781 -4.44542,5.7408 -3.93812,46.58464 -3.16582,71.4342 2.08765,67.16986 1.27704,75.26361 -8.18951,81.77192 -12.3526,8.4925 -216.8987,9.86492 -238.76277,1.60198 z m 143.7426,-24.32433 72.27985,-3.91978 1.81022,-74.28017 c 2.15122,-88.27303 -3.70979,-82.46491 83.32393,-82.57205 61.75744,-0.0761 61.34568,-1.30992 68.56386,-13.65718 6.63327,-43.90172 4.86193,-69.30232 2.64283,-105.17854 -1.40912,-22.19917 0.0238,-58.35543 -8.10219,-64.13858 -5.29074,-6.81147 -42.10859,-2.45893 -65.1003,-2.45893 -84.1352,0 -80.28426,4.98531 -80.28426,-103.93263 0,-65.168745 3.21174,-73.175073 -9.03928,-75.965592 -66.45651,-1.492545 -182.68924,-4.269345 -191.09166,6.864388 l -1.79464,76.884204 c -2.1364,91.52536 4.52404,85.05662 -87.68718,85.16325 -56.144475,0.065 -59.162883,-0.81023 -65.228096,6.62524 -5.687499,39.254 -6.89074,75.04586 -4.637848,111.48347 2.137395,33.67 -2.143613,55.85877 9.571918,65.55532 13.433596,11.11858 49.170676,7.1131 107.217726,7.18187 40.83722,0.0482 39.75718,-2.51204 39.75718,94.24974 0,59.86158 -0.20134,67.94953 6.95766,70.42313 44.01084,5.65833 79.89687,3.83641 120.84028,1.67284 z"
       id="path476"
       sodipodi:nodetypes="ccccscccscccscccsccccssccccsccssccssscc" />
  </g>
</svg>
