<?xml version="1.0" encoding="UTF-8" standalone="no"?>
<svg
   xmlns:dc="http://purl.org/dc/elements/1.1/"
   xmlns:cc="http://creativecommons.org/ns#"
   xmlns:rdf="http://www.w3.org/1999/02/22-rdf-syntax-ns#"
   xmlns:svg="http://www.w3.org/2000/svg"
   xmlns="http://www.w3.org/2000/svg"
   xmlns:sodipodi="http://sodipodi.sourceforge.net/DTD/sodipodi-0.dtd"
   xmlns:inkscape="http://www.inkscape.org/namespaces/inkscape"
   version="1.1"
   id="svg1023"
   width="512"
   height="512"
   viewBox="0 0 512 512"
   sodipodi:docname="Enforcer.svg"
   inkscape:version="1.0.1 (3bc2e813f5, 2020-09-07)">
  <metadata
     id="metadata1029">
    <rdf:RDF>
      <cc:Work
         rdf:about="">
        <dc:format>image/svg+xml</dc:format>
        <dc:type
           rdf:resource="http://purl.org/dc/dcmitype/StillImage" />
        <dc:title></dc:title>
      </cc:Work>
    </rdf:RDF>
  </metadata>
  <defs
     id="defs1027">
    <filter
       style="color-interpolation-filters:sRGB"
       inkscape:label="Colorize"
       id="filter1039">
      <feColorMatrix
         values="-1 0 0 0 1 0 -1 0 0 1 0 0 -1 0 1 -0.21 -0.72 -0.07 2 0 "
         result="fbSourceGraphic"
         id="feColorMatrix1037" />
      <feColorMatrix
         result="fbSourceGraphicAlpha"
         in="fbSourceGraphic"
         values="0 0 0 -1 0 0 0 0 -1 0 0 0 0 -1 0 0 0 0 1 0"
         id="feColorMatrix1041" />
      <feComposite
         in2="fbSourceGraphic"
         id="feComposite1043"
         operator="arithmetic"
         k1="0.463936"
         k2="1"
         result="composite1"
         in="fbSourceGraphic"
         k3="0"
         k4="0" />
      <feColorMatrix
         id="feColorMatrix1045"
         in="composite1"
         values="1"
         type="saturate"
         result="colormatrix1" />
      <feFlood
         id="feFlood1047"
         flood-opacity="1"
         flood-color="rgb(0,177,255)"
         result="flood1" />
      <feBlend
         in2="colormatrix1"
         id="feBlend1049"
         in="flood1"
         mode="multiply"
         result="blend1" />
      <feBlend
         in2="blend1"
         id="feBlend1051"
         mode="screen"
         result="blend2" />
      <feColorMatrix
         id="feColorMatrix1053"
         in="blend2"
         values="1"
         type="saturate"
         result="colormatrix2" />
      <feComposite
         in2="fbSourceGraphic"
         id="feComposite1055"
         in="colormatrix2"
         operator="in"
         result="composite2" />
    </filter>
  </defs>
  <sodipodi:namedview
     pagecolor="#ffffff"
     bordercolor="#666666"
     borderopacity="1"
     objecttolerance="10"
     gridtolerance="10"
     guidetolerance="10"
     inkscape:pageopacity="0"
     inkscape:pageshadow="2"
     inkscape:window-width="1920"
     inkscape:window-height="1028"
     id="namedview1025"
     showgrid="false"
     inkscape:zoom="0.88250238"
     inkscape:cx="-30.060079"
     inkscape:cy="374.32074"
     inkscape:window-x="0"
     inkscape:window-y="0"
     inkscape:window-maximized="1"
     inkscape:current-layer="g1031"
     inkscape:document-rotation="0" />
  <g
     inkscape:groupmode="layer"
     inkscape:label="Image"
     id="g1031"
     transform="translate(60.423273,12.964083)">
    <path
       style="fill:#000000;stroke-width:1.33333;filter:url(#filter1039)"
       d="m 129.91215,585.62596 c -1.28654,-9.58752 -2.68929,-319.45067 -1.54824,-342.00001 l 0.99519,-19.66667 h 53.72481 53.72479 l 1.09903,18.33333 c 1.40521,23.44095 1.40816,325.59504 0.003,339.33335 l -1.05666,10.33333 h -53.04618 -53.04618 l -0.84986,-6.33333 z M 25.748545,213.49447 23.297247,207.76733 26.699438,96.893261 c 1.979294,-64.503242 2.80288,-120.033753 3.21207,-123.801457 l 6.824356,3.447089 19.050473,-8.819331 c 6.18793,-2.864674 294.379113,-4.543386 296.281903,-2.640611 3.88512,1.960111 6.16039,2.720667 6.81718,6.546987 3.13775,19.1532227 -4.60443,222.465102 -4.64815,225.918612 -0.0541,4.27254 -4.32161,12.39883 -7.70664,13.16578 -5.53202,1.19656 -313.649405,3.94567 -320.782085,2.78414 z"
       id="path1035"
       sodipodi:nodetypes="cscccsccccccscsccsccscs"
       transform="matrix(0.77054443,0,0,0.77054443,53.989038,29.494207)" />
    <path
       style="fill:#000000;stroke-width:4.1012"
       d="M 150.97853,342.38893 V 198.75932 H 110.50371 70.028917 L 71.112065,99.883896 72.195243,1.0084508 H 201.48064 L 332.1805,0.9617198 331.94806,86.353561 c -0.20026,73.569249 0.7679,91.257019 0.31014,111.859869 -11.90549,0.47648 -26.51229,0.54448 -47.12714,0.54318 l -43.24875,-0.002 1.33359,125.82706 c 0.73344,69.2049 -1.05024,133.82325 -1.21201,143.53085 -0.043,5.8134 -0.13165,11.72826 -0.17469,17.54166 l -46.65636,0.36505 h -44.19431 z m 79.16746,118.15137 c 0.22595,-17.32161 1.06499,-213.40462 0.96322,-234.07025 0.0578,-6.40195 0.0215,-14.96681 -2.95878,-15.26448 -6.02016,-0.60131 -13.08907,0.0433 -33.25881,0.0433 -10.59758,0 -25.47789,-1.42788 -29.85477,1.32931 -1.7077,1.71564 -1.87913,86.78162 -1.93794,129.81078 0,43.71335 -2.31448,125.56154 1.64325,129.22052 2.80556,2.49559 19.94888,1.61597 30.17308,1.91954 23.0136,0 28.91175,0.12996 34.53346,0.2762 2.2407,-0.009 0.69583,-9.26134 0.69729,-13.26492 z m 89.59154,-362.738 1.092,-86.385918 H 201.5626 82.295654 v 87.489578 87.4896 l 118.174926,-1.10367 118.17492,-1.10367 z"
       id="path1071"
       sodipodi:nodetypes="ccccccccscccscccccccscccccccccccccccc" />
  </g>
</svg>
