<?xml version="1.0" encoding="UTF-8" standalone="no"?>
<svg
   xmlns:dc="http://purl.org/dc/elements/1.1/"
   xmlns:cc="http://creativecommons.org/ns#"
   xmlns:rdf="http://www.w3.org/1999/02/22-rdf-syntax-ns#"
   xmlns:svg="http://www.w3.org/2000/svg"
   xmlns="http://www.w3.org/2000/svg"
   xmlns:sodipodi="http://sodipodi.sourceforge.net/DTD/sodipodi-0.dtd"
   xmlns:inkscape="http://www.inkscape.org/namespaces/inkscape"
   version="1.1"
   id="svg1023"
   width="340.62778"
   height="629.34088"
   viewBox="0 0 340.62778 629.34088"
   sodipodi:docname="Enforcer.svg"
   inkscape:version="1.0.1 (3bc2e813f5, 2020-09-07)">
  <metadata
     id="metadata1029">
    <rdf:RDF>
      <cc:Work
         rdf:about="">
        <dc:format>image/svg+xml</dc:format>
        <dc:type
           rdf:resource="http://purl.org/dc/dcmitype/StillImage" />
        <dc:title></dc:title>
      </cc:Work>
    </rdf:RDF>
  </metadata>
  <defs
     id="defs1027">
    <filter
       style="color-interpolation-filters:sRGB;"
       inkscape:label="Colorize"
       id="filter1039">
      <feColorMatrix
         values="-1 0 0 0 1 0 -1 0 0 1 0 0 -1 0 1 -0.21 -0.72 -0.07 2 0 "
         result="fbSourceGraphic"
         id="feColorMatrix1037" />
      <feColorMatrix
         result="fbSourceGraphicAlpha"
         in="fbSourceGraphic"
         values="0 0 0 -1 0 0 0 0 -1 0 0 0 0 -1 0 0 0 0 1 0"
         id="feColorMatrix1041" />
      <feComposite
         in2="fbSourceGraphic"
         id="feComposite1043"
         operator="arithmetic"
         k1="0.463936"
         k2="1"
         result="composite1"
         in="fbSourceGraphic" />
      <feColorMatrix
         id="feColorMatrix1045"
         in="composite1"
         values="1"
         type="saturate"
         result="colormatrix1" />
      <feFlood
         id="feFlood1047"
         flood-opacity="1"
         flood-color="rgb(0,177,255)"
         result="flood1" />
      <feBlend
         in2="colormatrix1"
         id="feBlend1049"
         in="flood1"
         mode="multiply"
         result="blend1" />
      <feBlend
         in2="blend1"
         id="feBlend1051"
         mode="screen"
         result="blend2" />
      <feColorMatrix
         id="feColorMatrix1053"
         in="blend2"
         values="1"
         type="saturate"
         result="colormatrix2" />
      <feComposite
         in2="fbSourceGraphic"
         id="feComposite1055"
         in="colormatrix2"
         operator="in"
         k2="1"
         result="composite2" />
    </filter>
  </defs>
  <sodipodi:namedview
     pagecolor="#ffffff"
     bordercolor="#666666"
     borderopacity="1"
     objecttolerance="10"
     gridtolerance="10"
     guidetolerance="10"
     inkscape:pageopacity="0"
     inkscape:pageshadow="2"
     inkscape:window-width="1920"
     inkscape:window-height="1028"
     id="namedview1025"
     showgrid="false"
     inkscape:zoom="0.88250238"
     inkscape:cx="3.2986544"
     inkscape:cy="340.24579"
     inkscape:window-x="0"
     inkscape:window-y="0"
     inkscape:window-maximized="1"
     inkscape:current-layer="g1031" />
  <g
     inkscape:groupmode="layer"
     inkscape:label="Image"
     id="g1031"
     transform="translate(60.423273,12.964083)">
    <path
       style="fill:#000000;stroke-width:1.33333;filter:url(#filter1039)"
       d="m 49.073677,610.04345 c -1.28654,-9.58752 -2.68929,-319.45067 -1.54824,-342.00001 l 0.99519,-19.66667 h 53.724803 53.72479 l 1.09903,18.33333 c 1.40521,23.44095 1.40816,325.59504 0.003,339.33335 l -1.05666,10.33333 H 102.96941 49.923237 l -0.84986,-6.33333 z m -104.16361,-372.13149 -2.451298,-5.72714 3.402191,-110.87407 c 1.979294,-64.503242 2.80288,-120.0337528 3.21207,-123.8014568 l 6.824356,3.44708868 19.050473,-8.81933048 c 6.18793,-2.8646744 294.379111,-4.5433864 296.281901,-2.6406114 3.88512,1.9601118 6.16039,2.7206676 6.81718,6.5469874 3.13775,19.1532226 -4.60443,222.4651026 -4.64815,225.9186126 -0.0541,4.27254 -4.32161,12.39883 -7.70664,13.16578 -5.53202,1.19656 -313.649403,3.94567 -320.782083,2.78414 z"
       id="path1035"
       sodipodi:nodetypes="cscccsccccccscsccsccscs" />
    <path
       style="fill:#000000;stroke-width:5.32246"
       d="M 45.032894,430.48716 V 244.08698 H -7.4946663 -60.022186 l 1.405692,-128.3189 1.405732,-128.318942 H 110.57371 278.35815 l 1.53405,110.759488 c 2.18333,157.635434 7.07993,145.879124 -60.75834,145.874844 l -56.12752,-0.003 1.73071,163.29632 c 0.95185,89.81298 0.21746,173.69466 -1.63208,186.40366 l -3.36279,23.10737 H 102.38754 45.032894 Z M 146.62113,583.7945 c 4.24036,-21.84724 4.16611,-276.71496 -0.0885,-303.23793 -3.24997,-20.26088 -3.24997,-20.26088 -44.51005,-20.26088 -13.75335,0 -33.064775,-1.85308 -38.745028,1.72515 -2.216234,2.22653 -2.438695,112.62378 -2.515022,168.46632 0,56.73048 -3.003699,162.95171 2.132585,167.70028 3.640995,3.23874 25.889319,2.09717 39.158125,2.49115 41.2907,0 41.2907,0 44.56773,-16.88409 z M 264.04557,113.06662 265.46274,0.95638188 H 110.68008 -44.102614 V 114.49894 228.0415 l 153.365484,-1.43232 153.36548,-1.43233 z"
       id="path1071"
       sodipodi:nodetypes="ccccccccsccsscccccccccccccccccccccc" />
  </g>
</svg>
