<?xml version="1.0" encoding="UTF-8" standalone="no"?>
<svg
   xmlns:dc="http://purl.org/dc/elements/1.1/"
   xmlns:cc="http://creativecommons.org/ns#"
   xmlns:rdf="http://www.w3.org/1999/02/22-rdf-syntax-ns#"
   xmlns:svg="http://www.w3.org/2000/svg"
   xmlns="http://www.w3.org/2000/svg"
   xmlns:sodipodi="http://sodipodi.sourceforge.net/DTD/sodipodi-0.dtd"
   xmlns:inkscape="http://www.inkscape.org/namespaces/inkscape"
   version="1.1"
   id="svg1142"
   width="512"
   height="512"
   viewBox="0 0 512 511.99999"
   sodipodi:docname="Engineer.svg"
   inkscape:version="1.0.1 (3bc2e813f5, 2020-09-07)">
  <metadata
     id="metadata1148">
    <rdf:RDF>
      <cc:Work
         rdf:about="">
        <dc:format>image/svg+xml</dc:format>
        <dc:type
           rdf:resource="http://purl.org/dc/dcmitype/StillImage" />
        <dc:title></dc:title>
      </cc:Work>
    </rdf:RDF>
  </metadata>
  <defs
     id="defs1146">
    <filter
       style="color-interpolation-filters:sRGB"
       inkscape:label="Colorize"
       id="filter1158">
      <feColorMatrix
         values="-1 0 0 0 1 0 -1 0 0 1 0 0 -1 0 1 -0.21 -0.72 -0.07 2 0 "
         result="fbSourceGraphic"
         id="feColorMatrix1156" />
      <feColorMatrix
         result="fbSourceGraphicAlpha"
         in="fbSourceGraphic"
         values="0 0 0 -1 0 0 0 0 -1 0 0 0 0 -1 0 0 0 0 1 0"
         id="feColorMatrix1160" />
      <feComposite
         in2="fbSourceGraphic"
         id="feComposite1162"
         operator="arithmetic"
         k1="0.463936"
         k2="1"
         result="composite1"
         in="fbSourceGraphic"
         k3="0"
         k4="0" />
      <feColorMatrix
         id="feColorMatrix1164"
         in="composite1"
         values="1"
         type="saturate"
         result="colormatrix1" />
      <feFlood
         id="feFlood1166"
         flood-opacity="1"
         flood-color="rgb(0,177,255)"
         result="flood1" />
      <feBlend
         in2="colormatrix1"
         id="feBlend1168"
         in="flood1"
         mode="multiply"
         result="blend1" />
      <feBlend
         in2="blend1"
         id="feBlend1170"
         mode="screen"
         result="blend2" />
      <feColorMatrix
         id="feColorMatrix1172"
         in="blend2"
         values="1"
         type="saturate"
         result="colormatrix2" />
      <feComposite
         in2="fbSourceGraphic"
         id="feComposite1174"
         in="colormatrix2"
         operator="in"
         result="composite2" />
    </filter>
    <filter
       style="color-interpolation-filters:sRGB"
       inkscape:label="Colorize"
       id="filter1194">
      <feColorMatrix
         values="-1 0 0 0 1 0 -1 0 0 1 0 0 -1 0 1 -0.21 -0.72 -0.07 2 0 "
         result="fbSourceGraphic"
         id="feColorMatrix1192" />
      <feColorMatrix
         result="fbSourceGraphicAlpha"
         in="fbSourceGraphic"
         values="0 0 0 -1 0 0 0 0 -1 0 0 0 0 -1 0 0 0 0 1 0"
         id="feColorMatrix1196" />
      <feComposite
         in2="fbSourceGraphic"
         id="feComposite1198"
         operator="arithmetic"
         k1="0.463936"
         k2="1"
         result="composite1"
         in="fbSourceGraphic"
         k3="0"
         k4="0" />
      <feColorMatrix
         id="feColorMatrix1200"
         in="composite1"
         values="1"
         type="saturate"
         result="colormatrix1" />
      <feFlood
         id="feFlood1202"
         flood-opacity="1"
         flood-color="rgb(0,104,255)"
         result="flood1" />
      <feBlend
         in2="colormatrix1"
         id="feBlend1204"
         in="flood1"
         mode="multiply"
         result="blend1" />
      <feBlend
         in2="blend1"
         id="feBlend1206"
         mode="screen"
         result="blend2" />
      <feColorMatrix
         id="feColorMatrix1208"
         in="blend2"
         values="1"
         type="saturate"
         result="colormatrix2" />
      <feComposite
         in2="fbSourceGraphic"
         id="feComposite1210"
         in="colormatrix2"
         operator="in"
         result="composite2" />
    </filter>
  </defs>
  <sodipodi:namedview
     pagecolor="#ffffff"
     bordercolor="#666666"
     borderopacity="1"
     objecttolerance="10"
     gridtolerance="10"
     guidetolerance="10"
     inkscape:pageopacity="0"
     inkscape:pageshadow="2"
     inkscape:window-width="1920"
     inkscape:window-height="1028"
     id="namedview1144"
     showgrid="false"
     inkscape:zoom="0.88250238"
     inkscape:cx="212.43851"
     inkscape:cy="299.42185"
     inkscape:window-x="0"
     inkscape:window-y="0"
     inkscape:window-maximized="1"
     inkscape:current-layer="g1150"
     inkscape:document-rotation="0" />
  <g
     inkscape:groupmode="layer"
     inkscape:label="Image"
     id="g1150"
     transform="translate(-96.642164,-17.922406)">
    <path
       style="fill:#000000;stroke-width:1.33333;filter:url(#filter1194)"
       d="M 386.70223,445.60579 246.68561,305.58916 274.65709,277.59207 c 18.23384,-18.25054 28.64187,-27.7402 29.89716,-27.25918 1.24168,0.47582 8.69215,-6.01646 20.97528,-18.27768 14.97744,-14.95073 19.39691,-18.66829 20.67432,-17.39088 2.72472,2.72472 6.75068,1.83194 11.20423,-2.48462 4.75104,-4.60488 5.37912,-4.47218 15.66587,3.31012 l 5.11201,3.86742 15.8052,-15.76402 15.80521,-15.76403 5.74944,5.09931 c 14.26866,12.6552 244.72629,242.10214 249.44201,248.34807 6.74624,8.93532 10.32186,4.38651 -48.56647,61.78546 -79.24066,77.23656 -84.95524,82.56037 -88.62012,82.56037 -0.59531,0 -64.08985,-63.00748 -141.099,-140.01662 z m 157.26954,14.6734 13.29314,-13.34321 -20.9834,-20.98341 -20.98341,-20.9834 -13.65595,13.65594 -13.65596,13.65595 20.6384,20.67068 c 24.45594,24.49416 19.30804,23.427 35.34718,7.32745 z"
       id="path1190"
       transform="matrix(0.76407826,0,0,0.76407826,41.741296,18.793874)" />
    <path
       style="fill:#000000;stroke-width:4.5767"
       d="M 317.21897,358.8183 C 237.08399,279.04573 201.43359,240.53575 202.54245,234.94333 c 3.74149,-18.87004 80.54532,-81.16217 100.06989,-81.16217 11.98136,0 20.913,-2.9234 25.99246,-8.50753 4.2563,-4.67917 11.04854,-8.50756 15.09386,-8.50756 9.32612,0 220.64307,209.95927 220.64307,219.22546 0,10.48766 -110.93049,118.58653 -121.69287,118.58653 -5.8359,0 -51.2166,-41.88202 -125.42989,-115.75976 z M 446.34395,254.49412 C 344.44286,153.11239 344.44286,153.11239 333.94651,162.82952 c -7.08533,6.55932 -15.96584,9.54674 -27.32711,9.19279 -15.51293,-0.48326 -86.40846,52.36256 -86.40846,64.40923 0,1.63852 50.05766,52.81279 111.23919,113.72063 l 111.2392,110.74149 52.77783,-52.50889 52.77783,-52.50889 z"
       id="path1240"
       sodipodi:nodetypes="ssssssssssssscccs" />
    <path
       style="fill:#000000;stroke-width:1.33333;filter:url(#filter1158)"
       d="m 406.77159,534.37085 c -23.0345,-21.45261 -42.99901,-45.79936 -64.6834,-68.51248 l -6.43833,-6.70566 32.33044,-32.02557 C 430.92249,363.43896 485.59576,323.98799 545.20095,266.84401 l 7.55685,-7.31248 43.17607,43.18293 c 17.00689,18.51785 36.67306,34.77123 52.07884,54.69874 l -62.51764,62.30134 C 497.68785,507.21797 446.38516,557.4999 441.24146,561.09798 l -4.40262,3.07968 z M 195.29432,318.99134 c -50.18986,-50.19407 -59.4631,-52.02917 -56.97887,-55.47911 4.49687,-6.24499 77.36456,-66.48384 110.53566,-97.0062 35.71689,-32.33452 75.20074,-69.881218 105.44354,-98.924055 l 15.67472,14.712539 c 33.89906,31.818186 82.62549,82.159526 83.34028,86.102366 0.83932,4.6298 -38.11919,44.47804 -93.42154,95.55507 -37.65552,33.81574 -73.55004,69.64481 -111.68361,102.92278 -2.6619,2.26105 -3.79806,1.23284 -52.91018,-47.88339 z"
       id="path1154"
       sodipodi:nodetypes="ccccccccssccssccssccs"
       transform="matrix(0.76407826,0,0,0.76407826,41.741296,18.793874)" />
    <path
       style="fill:#000000;stroke-width:4.38529"
       d="m 328.41778,419.78408 c -21.43183,-22.35598 -38.98518,-42.75511 -39.00746,-45.33133 -0.0869,-10.02491 170.93931,-162.82242 182.24686,-162.82242 9.74235,0 78.49415,71.64867 78.49415,81.80151 0,11.12772 -159.28923,163.3421 -173.20233,165.5096 -7.26936,1.13248 -18.91407,-8.26305 -48.53122,-39.15736 z m 183.04958,-102.42389 25.40636,-25.47466 -32.85579,-32.12548 -32.85581,-32.1255 -43.75521,37.50974 c -24.06534,20.63033 -61.05671,53.73941 -82.20299,73.57569 l -38.44782,36.06598 33.74781,35.97129 33.74782,35.97132 55.90459,-51.9469 c 30.74756,-28.57078 67.33749,-63.41043 81.31104,-77.42148 z M 175.46684,267.02148 c -22.43887,-22.17972 -40.79794,-42.28653 -40.79794,-44.68179 0,-9.6005 165.73522,-162.987912 176.10857,-162.987912 9.13166,0 84.67295,73.742222 84.67295,82.656422 0,10.22019 -163.38045,165.34009 -174.14495,165.34009 -2.7724,0 -23.39977,-18.14703 -45.83863,-40.32681 z m 140.42312,-63.49989 64.09036,-60.80434 -33.88784,-33.67212 C 306.44424,69.649279 321.02665,63.814638 217.23008,160.60477 l -65.5097,61.08769 34.23131,33.89408 34.23128,33.89407 15.8083,-12.57735 c 8.69456,-6.91753 44.64897,-39.93927 79.89869,-73.38167 z"
       id="path1242" />
  </g>
</svg>
