<?xml version="1.0" encoding="UTF-8" standalone="no"?>
<svg
   xmlns:dc="http://purl.org/dc/elements/1.1/"
   xmlns:cc="http://creativecommons.org/ns#"
   xmlns:rdf="http://www.w3.org/1999/02/22-rdf-syntax-ns#"
   xmlns:svg="http://www.w3.org/2000/svg"
   xmlns="http://www.w3.org/2000/svg"
   xmlns:sodipodi="http://sodipodi.sourceforge.net/DTD/sodipodi-0.dtd"
   xmlns:inkscape="http://www.inkscape.org/namespaces/inkscape"
   version="1.1"
   id="svg266"
   width="696.41064"
   height="644.80005"
   viewBox="0 0 696.41065 644.80005"
   sodipodi:docname="Fixer.svg"
   inkscape:version="1.0.1 (3bc2e813f5, 2020-09-07)">
  <metadata
     id="metadata272">
    <rdf:RDF>
      <cc:Work
         rdf:about="">
        <dc:format>image/svg+xml</dc:format>
        <dc:type
           rdf:resource="http://purl.org/dc/dcmitype/StillImage" />
        <dc:title></dc:title>
      </cc:Work>
    </rdf:RDF>
  </metadata>
  <defs
     id="defs270">
    <filter
       style="color-interpolation-filters:sRGB"
       inkscape:label="Colorize"
       id="filter282">
      <feColorMatrix
         values="-1 0 0 0 1 0 -1 0 0 1 0 0 -1 0 1 -0.21 -0.72 -0.07 2 0 "
         result="fbSourceGraphic"
         id="feColorMatrix280" />
      <feColorMatrix
         result="fbSourceGraphicAlpha"
         in="fbSourceGraphic"
         values="0 0 0 -1 0 0 0 0 -1 0 0 0 0 -1 0 0 0 0 1 0"
         id="feColorMatrix284" />
      <feComposite
         in2="fbSourceGraphic"
         id="feComposite286"
         operator="arithmetic"
         k1="0.463936"
         k2="1"
         result="composite1"
         in="fbSourceGraphic"
         k3="0"
         k4="0" />
      <feColorMatrix
         id="feColorMatrix288"
         in="composite1"
         values="1"
         type="saturate"
         result="colormatrix1" />
      <feFlood
         id="feFlood290"
         flood-opacity="1"
         flood-color="rgb(0,177,255)"
         result="flood1" />
      <feBlend
         in2="colormatrix1"
         id="feBlend292"
         in="flood1"
         mode="multiply"
         result="blend1" />
      <feBlend
         in2="blend1"
         id="feBlend294"
         mode="screen"
         result="blend2" />
      <feColorMatrix
         id="feColorMatrix296"
         in="blend2"
         values="1"
         type="saturate"
         result="colormatrix2" />
      <feComposite
         in2="fbSourceGraphic"
         id="feComposite298"
         in="colormatrix2"
         operator="in"
         result="composite2" />
    </filter>
    <filter
       style="color-interpolation-filters:sRGB;"
       inkscape:label="Colorize"
       id="filter318">
      <feColorMatrix
         values="-1 0 0 0 1 0 -1 0 0 1 0 0 -1 0 1 -0.21 -0.72 -0.07 2 0 "
         result="fbSourceGraphic"
         id="feColorMatrix316" />
      <feColorMatrix
         result="fbSourceGraphicAlpha"
         in="fbSourceGraphic"
         values="0 0 0 -1 0 0 0 0 -1 0 0 0 0 -1 0 0 0 0 1 0"
         id="feColorMatrix320" />
      <feComposite
         in2="fbSourceGraphic"
         id="feComposite322"
         operator="arithmetic"
         k1="0.463936"
         k2="1"
         result="composite1"
         in="fbSourceGraphic" />
      <feColorMatrix
         id="feColorMatrix324"
         in="composite1"
         values="1"
         type="saturate"
         result="colormatrix1" />
      <feFlood
         id="feFlood326"
         flood-opacity="1"
         flood-color="rgb(0,104,255)"
         result="flood1" />
      <feBlend
         in2="colormatrix1"
         id="feBlend328"
         in="flood1"
         mode="multiply"
         result="blend1" />
      <feBlend
         in2="blend1"
         id="feBlend330"
         mode="screen"
         result="blend2" />
      <feColorMatrix
         id="feColorMatrix332"
         in="blend2"
         values="1"
         type="saturate"
         result="colormatrix2" />
      <feComposite
         in2="fbSourceGraphic"
         id="feComposite334"
         in="colormatrix2"
         operator="in"
         k2="1"
         result="composite2" />
    </filter>
  </defs>
  <sodipodi:namedview
     pagecolor="#ffffff"
     bordercolor="#666666"
     borderopacity="1"
     objecttolerance="10"
     gridtolerance="10"
     guidetolerance="10"
     inkscape:pageopacity="0"
     inkscape:pageshadow="2"
     inkscape:window-width="1920"
     inkscape:window-height="1028"
     id="namedview268"
     showgrid="false"
     inkscape:zoom="0.62402342"
     inkscape:cx="479.87595"
     inkscape:cy="200.08611"
     inkscape:window-x="0"
     inkscape:window-y="0"
     inkscape:window-maximized="1"
     inkscape:current-layer="g274" />
  <g
     inkscape:groupmode="layer"
     inkscape:label="Image"
     id="g274"
     transform="translate(253.74699,-41.650884)">
    <path
       style="fill:#000000;stroke-width:1.33333;filter:url(#filter282)"
       d="m -193.14522,631.71757 c -0.32927,-0.55 -1.04167,-121.45 -1.58311,-268.66667 L -195.71277,95.384221 H 94.458327 384.62942 V 364.0509 632.71757 H 96.041437 c -158.7234,0 -288.857397,-0.45 -289.186657,-1 z M 292.62942,364.0509 V 187.38423 H 95.296067 -102.03727 c -0.0934,79.72625 0.35696,163.4299 0.8864,235.1128 l 0.8864,118.22054 H 96.182477 292.62942 Z"
       id="path278"
       sodipodi:nodetypes="sscccccssccccccccc" />
    <path
       style="fill:#000000;stroke-width:1.33333;filter:url(#filter318)"
       d="m -83.983457,519.67193 c -3.23297,-8.50337 -1.59085,-314.87869 1.69242,-315.75857 5.1344,-1.37597 353.474727,-0.92088 355.666677,0.46465 2.24909,1.42167 3.1279,314.67762 0.88908,316.91708 -3.43379,3.43476 -356.934107,1.83312 -358.248177,-1.62316 z M 206.70897,363.07298 v -92 H 94.708969 -17.291037 v 92 92 H 94.708969 206.70897 Z"
       id="path314" />
    <path
       style="fill:#000000;stroke-width:5.43844"
       d="m -199.26239,639.13701 c -2.01436,-2.02522 -3.66246,-125.99126 -3.66246,-275.47993 V 91.859476 l 294.239493,1.41028 294.239537,1.410258 V 367.33949 639.999 l -290.577028,1.41021 c -159.81737,0.7756 -292.225142,-0.24703 -294.239542,-2.2722 z M 371.99474,367.33949 V 108.31298 H 92.670573 -186.65354 V 367.33949 626.36605 H 92.670573 371.99474 Z m -481.43173,-1.36327 1.42808,-184.04516 H 92.670573 293.35008 l 1.42808,184.04516 1.42806,184.04515 H 92.670573 -110.86508 Z m 389.22766,-1.36329 V 195.56401 H 92.670573 -94.449494 V 364.61293 533.6618 H 92.670573 279.79067 Z"
       id="path350" />
    <path
       style="fill:#000000;stroke-width:5.41464"
       d="m -90.954251,522.11722 c -1.458694,-3.7958 -2.004232,-77.4825 -1.212302,-163.74821 l 1.439839,-156.84677 H 93.503199 277.73316 v 162.32338 162.32344 l -183.017659,1.42483 c -144.411298,1.12424 -183.57705,-0.0325 -185.669752,-5.47667 z M 264.18686,363.84562 V 215.04921 H 93.503199 -77.180409 V 363.84562 512.64209 H 93.503199 264.18686 Z m -292.600524,0 V 263.74623 H 93.503199 215.42012 V 363.84562 463.94507 H 93.503199 -28.413664 Z m 227.578194,0 V 279.97858 H 93.503199 -12.158082 v 83.86704 83.86711 H 93.503199 199.16453 Z"
       id="path366" />
  </g>
</svg>
