<?xml version="1.0" encoding="UTF-8" standalone="no"?>
<svg
   xmlns:dc="http://purl.org/dc/elements/1.1/"
   xmlns:cc="http://creativecommons.org/ns#"
   xmlns:rdf="http://www.w3.org/1999/02/22-rdf-syntax-ns#"
   xmlns:svg="http://www.w3.org/2000/svg"
   xmlns="http://www.w3.org/2000/svg"
   xmlns:sodipodi="http://sodipodi.sourceforge.net/DTD/sodipodi-0.dtd"
   xmlns:inkscape="http://www.inkscape.org/namespaces/inkscape"
   version="1.1"
   id="svg266"
   width="512"
   height="512"
   viewBox="0 0 512 512"
   sodipodi:docname="Fixer.svg"
   inkscape:version="1.0.1 (3bc2e813f5, 2020-09-07)">
  <metadata
     id="metadata272">
    <rdf:RDF>
      <cc:Work
         rdf:about="">
        <dc:format>image/svg+xml</dc:format>
        <dc:type
           rdf:resource="http://purl.org/dc/dcmitype/StillImage" />
        <dc:title></dc:title>
      </cc:Work>
    </rdf:RDF>
  </metadata>
  <defs
     id="defs270">
    <filter
       style="color-interpolation-filters:sRGB"
       inkscape:label="Colorize"
       id="filter282">
      <feColorMatrix
         values="-1 0 0 0 1 0 -1 0 0 1 0 0 -1 0 1 -0.21 -0.72 -0.07 2 0 "
         result="fbSourceGraphic"
         id="feColorMatrix280" />
      <feColorMatrix
         result="fbSourceGraphicAlpha"
         in="fbSourceGraphic"
         values="0 0 0 -1 0 0 0 0 -1 0 0 0 0 -1 0 0 0 0 1 0"
         id="feColorMatrix284" />
      <feComposite
         in2="fbSourceGraphic"
         id="feComposite286"
         operator="arithmetic"
         k1="0.463936"
         k2="1"
         result="composite1"
         in="fbSourceGraphic"
         k3="0"
         k4="0" />
      <feColorMatrix
         id="feColorMatrix288"
         in="composite1"
         values="1"
         type="saturate"
         result="colormatrix1" />
      <feFlood
         id="feFlood290"
         flood-opacity="1"
         flood-color="rgb(0,177,255)"
         result="flood1" />
      <feBlend
         in2="colormatrix1"
         id="feBlend292"
         in="flood1"
         mode="multiply"
         result="blend1" />
      <feBlend
         in2="blend1"
         id="feBlend294"
         mode="screen"
         result="blend2" />
      <feColorMatrix
         id="feColorMatrix296"
         in="blend2"
         values="1"
         type="saturate"
         result="colormatrix2" />
      <feComposite
         in2="fbSourceGraphic"
         id="feComposite298"
         in="colormatrix2"
         operator="in"
         result="composite2" />
    </filter>
    <filter
       style="color-interpolation-filters:sRGB"
       inkscape:label="Colorize"
       id="filter318">
      <feColorMatrix
         values="-1 0 0 0 1 0 -1 0 0 1 0 0 -1 0 1 -0.21 -0.72 -0.07 2 0 "
         result="fbSourceGraphic"
         id="feColorMatrix316" />
      <feColorMatrix
         result="fbSourceGraphicAlpha"
         in="fbSourceGraphic"
         values="0 0 0 -1 0 0 0 0 -1 0 0 0 0 -1 0 0 0 0 1 0"
         id="feColorMatrix320" />
      <feComposite
         in2="fbSourceGraphic"
         id="feComposite322"
         operator="arithmetic"
         k1="0.463936"
         k2="1"
         result="composite1"
         in="fbSourceGraphic"
         k3="0"
         k4="0" />
      <feColorMatrix
         id="feColorMatrix324"
         in="composite1"
         values="1"
         type="saturate"
         result="colormatrix1" />
      <feFlood
         id="feFlood326"
         flood-opacity="1"
         flood-color="rgb(0,104,255)"
         result="flood1" />
      <feBlend
         in2="colormatrix1"
         id="feBlend328"
         in="flood1"
         mode="multiply"
         result="blend1" />
      <feBlend
         in2="blend1"
         id="feBlend330"
         mode="screen"
         result="blend2" />
      <feColorMatrix
         id="feColorMatrix332"
         in="blend2"
         values="1"
         type="saturate"
         result="colormatrix2" />
      <feComposite
         in2="fbSourceGraphic"
         id="feComposite334"
         in="colormatrix2"
         operator="in"
         result="composite2" />
    </filter>
  </defs>
  <sodipodi:namedview
     pagecolor="#ffffff"
     bordercolor="#666666"
     borderopacity="1"
     objecttolerance="10"
     gridtolerance="10"
     guidetolerance="10"
     inkscape:pageopacity="0"
     inkscape:pageshadow="2"
     inkscape:window-width="1920"
     inkscape:window-height="1028"
     id="namedview268"
     showgrid="false"
     inkscape:zoom="0.88250238"
     inkscape:cx="301.30517"
     inkscape:cy="217.51898"
     inkscape:window-x="0"
     inkscape:window-y="0"
     inkscape:window-maximized="1"
     inkscape:current-layer="g274"
     inkscape:document-rotation="0" />
  <g
     inkscape:groupmode="layer"
     inkscape:label="Image"
     id="g274"
     transform="translate(253.74699,-41.650884)">
    <path
       style="fill:#000000;stroke-width:1.33333;filter:url(#filter282)"
       d="m -193.14522,631.71757 c -0.32927,-0.55 -1.04167,-121.45 -1.58311,-268.66667 L -195.71277,95.384221 H 94.458327 384.62942 V 364.0509 632.71757 H 96.041437 c -158.7234,0 -288.857397,-0.45 -289.186657,-1 z M 292.62942,364.0509 V 187.38423 H 95.296067 -102.03727 c -0.0934,79.72625 0.35696,163.4299 0.8864,235.1128 l 0.8864,118.22054 H 96.182477 292.62942 Z"
       id="path278"
       sodipodi:nodetypes="sscccccssccccccccc"
       transform="matrix(0.7769647,0,0,0.7769647,-70.574145,16.128385)" />
    <path
       style="fill:#000000;stroke-width:1.33333;filter:url(#filter318)"
       d="m -83.983457,519.67193 c -3.23297,-8.50337 -1.59085,-314.87869 1.69242,-315.75857 5.1344,-1.37597 353.474727,-0.92088 355.666677,0.46465 2.24909,1.42167 3.1279,314.67762 0.88908,316.91708 -3.43379,3.43476 -356.934107,1.83312 -358.248177,-1.62316 z M 206.70897,363.07298 v -92 H 94.708969 -17.291037 v 92 92 H 94.708969 206.70897 Z"
       id="path314"
       transform="matrix(0.7769647,0,0,0.7769647,-70.574145,16.128385)" />
    <path
       style="fill:#000000;stroke-width:4.22548"
       d="m -225.394,512.71527 c -1.56509,-1.57352 -2.84559,-97.89076 -2.84559,-214.03817 V 87.499952 L 0.37410826,88.595696 228.98783,89.691409 V 301.5382 513.38501 L 3.2197478,514.4807 C -120.95272,515.08331 -223.82888,514.28877 -225.394,512.71527 Z M 218.45262,301.5382 V 100.28374 H 1.4276178 -215.59737 V 301.5382 502.7927 H 1.4276178 218.45262 Z m -374.05546,-1.05922 1.10958,-142.99658 H 1.4276178 157.34849 l 1.10958,142.99658 1.10955,142.99659 H 1.4276178 -156.7124 Z m 302.41615,-1.05922 V 168.07472 H 1.4276178 -143.95807 v 131.34504 131.345 H 1.4276178 146.81331 Z"
       id="path350" />
    <path
       style="fill:#000000;stroke-width:4.20698"
       d="m -141.24239,421.79502 c -1.13335,-2.94919 -1.55722,-60.20115 -0.94192,-127.22656 l 1.1187,-121.86441 H 2.0745391 145.2147 V 298.82359 424.94317 L 3.0164544,426.05021 C -109.18604,426.92371 -139.61644,426.02501 -141.24239,421.79502 Z M 134.68971,298.82359 V 183.21404 H 2.0745391 -130.54061 V 298.82359 414.43318 H 2.0745391 134.68971 Z m -227.340269,0 V 221.0499 H 2.0745391 96.799669 v 77.77369 77.77373 H 2.0745391 -92.650559 Z m 176.820221,0 V 233.66186 H 2.0745391 -80.020546 v 65.16173 65.16177 H 2.0745391 84.169662 Z"
       id="path366" />
  </g>
</svg>
