<?xml version="1.0" encoding="UTF-8" standalone="no"?>
<svg
   xmlns:dc="http://purl.org/dc/elements/1.1/"
   xmlns:cc="http://creativecommons.org/ns#"
   xmlns:rdf="http://www.w3.org/1999/02/22-rdf-syntax-ns#"
   xmlns:svg="http://www.w3.org/2000/svg"
   xmlns="http://www.w3.org/2000/svg"
   xmlns:sodipodi="http://sodipodi.sourceforge.net/DTD/sodipodi-0.dtd"
   xmlns:inkscape="http://www.inkscape.org/namespaces/inkscape"
   version="1.1"
   id="svg62"
   width="512"
   height="512"
   viewBox="0 0 512 512"
   sodipodi:docname="Keeper.svg"
   inkscape:version="1.0.1 (3bc2e813f5, 2020-09-07)">
  <metadata
     id="metadata68">
    <rdf:RDF>
      <cc:Work
         rdf:about="">
        <dc:format>image/svg+xml</dc:format>
        <dc:type
           rdf:resource="http://purl.org/dc/dcmitype/StillImage" />
        <dc:title></dc:title>
      </cc:Work>
    </rdf:RDF>
  </metadata>
  <defs
     id="defs66">
    <filter
       style="color-interpolation-filters:sRGB"
       inkscape:label="Colorize"
       id="filter216">
      <feColorMatrix
         values="-1 0 0 0 1 0 -1 0 0 1 0 0 -1 0 1 -0.21 -0.72 -0.07 2 0 "
         result="fbSourceGraphic"
         id="feColorMatrix214" />
      <feColorMatrix
         result="fbSourceGraphicAlpha"
         in="fbSourceGraphic"
         values="0 0 0 -1 0 0 0 0 -1 0 0 0 0 -1 0 0 0 0 1 0"
         id="feColorMatrix218" />
      <feComposite
         in2="fbSourceGraphic"
         id="feComposite220"
         operator="arithmetic"
         k1="0.463936"
         k2="1"
         result="composite1"
         in="fbSourceGraphic"
         k3="0"
         k4="0" />
      <feColorMatrix
         id="feColorMatrix222"
         in="composite1"
         values="1"
         type="saturate"
         result="colormatrix1" />
      <feFlood
         id="feFlood224"
         flood-opacity="1"
         flood-color="rgb(0,177,255)"
         result="flood1" />
      <feBlend
         in2="colormatrix1"
         id="feBlend226"
         in="flood1"
         mode="multiply"
         result="blend1" />
      <feBlend
         in2="blend1"
         id="feBlend228"
         mode="screen"
         result="blend2" />
      <feColorMatrix
         id="feColorMatrix230"
         in="blend2"
         values="1"
         type="saturate"
         result="colormatrix2" />
      <feComposite
         in2="fbSourceGraphic"
         id="feComposite232"
         in="colormatrix2"
         operator="in"
         result="composite2" />
    </filter>
  </defs>
  <sodipodi:namedview
     pagecolor="#ffffff"
     bordercolor="#666666"
     borderopacity="1"
     objecttolerance="10"
     gridtolerance="10"
     guidetolerance="10"
     inkscape:pageopacity="0"
     inkscape:pageshadow="2"
     inkscape:window-width="1920"
     inkscape:window-height="1028"
     id="namedview64"
     showgrid="false"
     inkscape:zoom="0.85453579"
     inkscape:cx="292.84168"
     inkscape:cy="329.53326"
     inkscape:window-x="0"
     inkscape:window-y="0"
     inkscape:window-maximized="1"
     inkscape:current-layer="g70"
     inkscape:document-rotation="0" />
  <g
     inkscape:groupmode="layer"
     inkscape:label="Image"
     id="g70"
     transform="translate(134.06313,50.024204)">
    <path
       style="fill:#000000;stroke-width:1.33333;filter:url(#filter216)"
       d="m -71.630154,567.14372 c -4.268771,-1.87332 -32.930006,-36.04446 -37.861996,-44.13429 -5.52931,-9.06959 -29.84201,-1.81606 36.498796,-67.3483 l 61.415191,-60.66667 -17.672348,-27.13499 C -48.219408,338.7337 -50.64839,342.99839 -44.35227,337.11694 c 3.79663,-3.54659 20.944587,-14.31887 38.0487868,-20.46436 8.51389,-3.05903 17.4480902,-8.42128 29.3333302,-17.60571 30.340121,-20.48468 61.030002,-45.05029 89.333343,-65.41156 33.13959,-23.74122 69.26569,-48.834 97.33334,-73.98806 78.68274,-70.050525 140.82251,-118.449224 212,-178.029428 11.36667,-8.460738 15.84939,-7.366051 20.24939,-11.038531 22.90179,-19.115087 49.79983,-18.862493 37.95927,7.000672 -6.93804,15.1546748 -63.64043,93.228206 -77.6724,110.081153 C 361.1244,137.0339 344.35318,166.0853 296.38476,229.7878 c -33.23818,40.29424 -56.49308,74.54752 -82.05923,109.87333 -21.30027,29.43147 -39.47998,59.04138 -54.69689,84.43866 -3.857,6.55738 -13.71053,22.59235 -16.16333,25.48213 -4.16219,4.90369 -3.39043,27.4661 -21.19244,40.74588 -18.69481,13.94578 -13.51658,0.29576 -37.933092,-12.92255 L 55.983957,462.05433 9.1735668,508.55669 C -75.945732,593.11587 -62.75511,571.03847 -71.630154,567.14372 Z"
       id="path74"
       sodipodi:nodetypes="ssscsssccccssscscssscss"
       transform="matrix(0.78575745,0,0,0.78575745,-13.555276,-0.70718723)" />
    <path
       style="fill:#000000;stroke-width:4.20599"
       d="m -95.59851,435.15712 c -12.51274,-13.26087 -22.79198,-27.85371 -22.84277,-32.42851 -0.056,-5.04194 17.57009,-25.92728 44.754452,-53.03002 L -28.839973,304.9864 -42.431334,288.17683 C -62.43589,263.43555 -60.120556,258.2439 -21.499679,241.24229 -11.05798,236.64565 8.2742585,224.85463 21.460861,215.04006 34.647458,205.22545 63.961585,183.98686 86.603366,167.84321 109.24515,151.69953 145.91839,122.449 168.09944,102.842 277.24638,6.3614212 337.56119,-39.718183 354.70018,-39.718183 c 10.7,0 11.93607,1.438432 11.93607,13.889913 0,10.094466 -6.9617,24.0298863 -25.47713,50.998247 -14.01242,20.409537 -31.04149,43.407091 -37.84235,51.105627 -6.80083,7.698562 -21.84115,27.676816 -33.4229,44.396176 -11.5817,16.71932 -41.54034,57.16494 -66.57465,89.87915 -46.54883,60.8288 -96.2422,135.11266 -112.132989,167.62141 -11.167204,22.84537 -20.440714,23.44143 -41.824201,2.68823 l -15.980862,-15.50982 -47.886966,46.95851 c -26.337828,25.82719 -50.23942,46.95854 -53.114622,46.95854 -2.875236,0 -15.465364,-10.84981 -27.97809,-24.11068 z m 76.208275,-38.78671 c 25.4449989,-25.36864 49.233091,-46.12477 52.862441,-46.12477 3.62931,0 13.996751,7.53007 23.038719,16.73348 l 16.43999,16.73346 10.784152,-21.23331 C 103.51515,323.53359 148.5886,256.63029 204.10043,183.81899 c 30.22508,-39.64432 63.49788,-83.78105 73.93958,-98.081613 10.4417,-14.300615 31.70591,-43.189296 47.25379,-64.197154 25.16563,-34.003049 33.16979,-48.678928 26.54929,-48.678928 -4.44542,0 -98.57727,74.546338 -134.97665,106.8928 -61.07902,54.278115 -86.27279,74.922055 -126.066609,103.299835 -20.608696,14.69649 -50.035311,35.68016 -65.392484,46.63043 -15.357144,10.95025 -35.990704,22.99985 -45.852288,26.77691 -9.861617,3.77705 -17.930204,9.08837 -17.930204,11.80294 0,2.71454 5.695473,10.35892 12.656607,16.98744 6.961135,6.62857 12.656607,15.03319 12.656607,18.67695 0,3.64377 -20.756897,27.19147 -46.126434,52.32824 l -46.126455,45.70319 17.649056,20.07874 c 9.707023,11.04333 18.630723,20.16373 19.830495,20.26755 1.199758,0.10373 23.000034,-20.56732 48.445034,-45.93591 z"
       id="path212" />
  </g>
</svg>
