<?xml version="1.0" encoding="UTF-8" standalone="no"?>
<svg
   xmlns:dc="http://purl.org/dc/elements/1.1/"
   xmlns:cc="http://creativecommons.org/ns#"
   xmlns:rdf="http://www.w3.org/1999/02/22-rdf-syntax-ns#"
   xmlns:svg="http://www.w3.org/2000/svg"
   xmlns="http://www.w3.org/2000/svg"
   xmlns:sodipodi="http://sodipodi.sourceforge.net/DTD/sodipodi-0.dtd"
   xmlns:inkscape="http://www.inkscape.org/namespaces/inkscape"
   version="1.1"
   id="svg438"
   width="614.45758"
   height="625.88812"
   viewBox="0 0 614.45758 625.88813"
   sodipodi:docname="Martial_Artist.svg"
   inkscape:version="1.0.1 (3bc2e813f5, 2020-09-07)">
  <metadata
     id="metadata444">
    <rdf:RDF>
      <cc:Work
         rdf:about="">
        <dc:format>image/svg+xml</dc:format>
        <dc:type
           rdf:resource="http://purl.org/dc/dcmitype/StillImage" />
        <dc:title></dc:title>
      </cc:Work>
    </rdf:RDF>
  </metadata>
  <defs
     id="defs442">
    <filter
       style="color-interpolation-filters:sRGB"
       inkscape:label="Colorize"
       id="filter470">
      <feColorMatrix
         values="-1 0 0 0 1 0 -1 0 0 1 0 0 -1 0 1 -0.21 -0.72 -0.07 2 0 "
         result="fbSourceGraphic"
         id="feColorMatrix468" />
      <feColorMatrix
         result="fbSourceGraphicAlpha"
         in="fbSourceGraphic"
         values="0 0 0 -1 0 0 0 0 -1 0 0 0 0 -1 0 0 0 0 1 0"
         id="feColorMatrix472" />
      <feComposite
         in2="fbSourceGraphic"
         id="feComposite474"
         operator="arithmetic"
         k1="0.463936"
         k2="1"
         result="composite1"
         in="fbSourceGraphic"
         k3="0"
         k4="0" />
      <feColorMatrix
         id="feColorMatrix476"
         in="composite1"
         values="1"
         type="saturate"
         result="colormatrix1" />
      <feFlood
         id="feFlood478"
         flood-opacity="1"
         flood-color="rgb(0,104,255)"
         result="flood1" />
      <feBlend
         in2="colormatrix1"
         id="feBlend480"
         in="flood1"
         mode="multiply"
         result="blend1" />
      <feBlend
         in2="blend1"
         id="feBlend482"
         mode="screen"
         result="blend2" />
      <feColorMatrix
         id="feColorMatrix484"
         in="blend2"
         values="1"
         type="saturate"
         result="colormatrix2" />
      <feComposite
         in2="fbSourceGraphic"
         id="feComposite486"
         in="colormatrix2"
         operator="in"
         result="composite2" />
    </filter>
    <filter
       style="color-interpolation-filters:sRGB"
       inkscape:label="Colorize"
       id="filter490">
      <feColorMatrix
         values="-1 0 0 0 1 0 -1 0 0 1 0 0 -1 0 1 -0.21 -0.72 -0.07 2 0 "
         result="fbSourceGraphic"
         id="feColorMatrix488" />
      <feColorMatrix
         result="fbSourceGraphicAlpha"
         in="fbSourceGraphic"
         values="0 0 0 -1 0 0 0 0 -1 0 0 0 0 -1 0 0 0 0 1 0"
         id="feColorMatrix492" />
      <feComposite
         in2="fbSourceGraphic"
         id="feComposite494"
         operator="arithmetic"
         k1="0.463936"
         k2="1"
         result="composite1"
         in="fbSourceGraphic"
         k3="0"
         k4="0" />
      <feColorMatrix
         id="feColorMatrix496"
         in="composite1"
         values="1"
         type="saturate"
         result="colormatrix1" />
      <feFlood
         id="feFlood498"
         flood-opacity="1"
         flood-color="rgb(0,177,255)"
         result="flood1" />
      <feBlend
         in2="colormatrix1"
         id="feBlend500"
         in="flood1"
         mode="multiply"
         result="blend1" />
      <feBlend
         in2="blend1"
         id="feBlend502"
         mode="screen"
         result="blend2" />
      <feColorMatrix
         id="feColorMatrix504"
         in="blend2"
         values="1"
         type="saturate"
         result="colormatrix2" />
      <feComposite
         in2="fbSourceGraphic"
         id="feComposite506"
         in="colormatrix2"
         operator="in"
         result="composite2" />
    </filter>
  </defs>
  <sodipodi:namedview
     pagecolor="#ffffff"
     bordercolor="#666666"
     borderopacity="1"
     objecttolerance="10"
     gridtolerance="10"
     guidetolerance="10"
     inkscape:pageopacity="0"
     inkscape:pageshadow="2"
     inkscape:window-width="1920"
     inkscape:window-height="1028"
     id="namedview440"
     showgrid="false"
     inkscape:zoom="0.62402342"
     inkscape:cx="-133.97472"
     inkscape:cy="324.91059"
     inkscape:window-x="0"
     inkscape:window-y="0"
     inkscape:window-maximized="1"
     inkscape:current-layer="g446" />
  <g
     inkscape:groupmode="layer"
     inkscape:label="Image"
     id="g446"
     transform="translate(-52.749699,-36.642561)">
    <path
       style="fill:#000000;stroke-width:1.33333;filter:url(#filter490)"
       d="M 211.38933,575.32838 C 189.08492,557.59579 155.41262,527.83845 128.90418,481.35008 104.03512,437.73671 90.266335,368.85612 100.03,316.99126 c 6.20021,-52.30777 29.95374,-104.39728 65.13132,-142.51827 37.48778,-40.05611 62.67008,-53.93892 90.10133,-67.75398 65.6645,-33.070262 169.77436,-25.652032 235.04448,16.74784 46.09232,29.94184 60.65985,91.6719 35.65385,151.0835 -27.19672,64.61655 -104.91016,80.83713 -175.07722,36.5426 -18.90074,-11.93152 -44.18408,-11.93426 -75.82785,-0.008 -56.56509,20.81657 -72.4653,104.65631 -71.71956,152.57324 0.928,30.80425 -1.04841,49.96881 13.79853,85.56797 10.42193,24.98914 10.83495,39.2844 -5.74555,26.10247 z"
       id="path450"
       sodipodi:nodetypes="csccssssccscc" />
    <path
       style="fill:#000000;stroke-width:1.33333;filter:url(#filter470)"
       d="m 346.556,619.99642 c -46.55077,-5.22752 -71.63047,-17.41396 -94.39667,-45.8682 -28.02837,-35.03113 -43.88127,-99.79116 -36.37747,-148.60415 8.46355,-55.05616 29.79036,-88.34008 63.65282,-99.34044 36.43729,-11.83683 61.31053,-9.609 94.10856,8.42904 30.57731,16.81672 70.3816,22.68604 95.52118,14.08503 35.1102,-12.01227 61.86383,-37.19025 73.34861,-69.02875 5.90022,-16.35679 7.2308,-24.58906 10.9906,-67.99829 1.13251,-13.07546 10.3817,-12.44417 20.6567,-8.151 11.19335,4.67688 34.43665,45.99073 43.14428,75.33774 20.97423,73.61366 2.49198,166.7093 -34.87701,221.61306 -57.8579,75.95152 -135.95118,125.95653 -235.7716,119.52596 z"
       id="path466"
       sodipodi:nodetypes="cssssssssccc" />
    <path
       style="fill:#000000;stroke-width:5.40935"
       d="M 327.69223,624.48373 C 253.87415,611.6241 212.6218,551.09625 211.8923,454.57534 c -0.85257,-112.8012 72.48493,-167.44921 165.17502,-123.0815 80.6643,38.61137 157.59752,1.01615 167.3001,-82.56335 5.69466,-49.05474 7.22342,-73.15919 23.37949,-71.3089 19.65565,2.25117 44.55216,64.0894 59.78319,113.89815 51.66607,168.95899 -123.66021,363.65527 -299.83787,332.96399 z m 78.94301,-19.10751 c 175.55281,-45.41916 245.62495,-209.24166 184.47994,-363.60209 -18.11939,-45.74237 -25.20894,-46.77305 -30.24557,6.51846 -9.63941,101.9925 -95.28781,144.1111 -193.74165,97.84721 -54.75354,-25.7289 -99.64364,-12.02514 -124.80996,38.10117 -35.67621,71.05984 -7.3958,178.95992 55.49796,211.7451 34.01564,17.73168 65.93268,20.48583 108.81928,9.39015 z"
       id="path522"
       sodipodi:nodetypes="ssssssssssssss" />
    <path
       style="fill:#000000;stroke-width:5.55146"
       d="M 190.72305,571.44854 C -61.413346,374.68312 177.70584,-36.098238 467.18063,96.523752 522.7651,121.98961 545.32451,154.09639 545.27241,207.66465 545.16395,319.05858 461.42739,369.3267 358.12018,320.0145 251.34369,269.04627 181.58123,382.01886 215.66912,524.28495 c 15.02563,62.70961 13.62251,77.26228 -24.94607,47.16359 z m 10.48067,-36.85311 c -14.76393,-38.19271 -13.15046,-125.87141 3.06634,-166.6337 29.91122,-75.18437 88.21063,-99.15288 159.72569,-65.66777 70.80723,33.1537 122.06918,21.92347 150.98701,-33.07761 C 565.29297,173.52743 490.9377,91.774819 352.78636,90.883689 162.9519,89.65913 47.635387,324.85335 138.72871,482.98915 c 26.27054,45.605 67.49045,80.28595 69.69302,78.10605 1.2037,-1.19132 -2.0444,-13.11624 -7.21801,-26.49977 z"
       id="path538"
       sodipodi:nodetypes="cscsscssssssss" />
  </g>
</svg>
