<?xml version="1.0" encoding="UTF-8" standalone="no"?>
<svg
   xmlns:dc="http://purl.org/dc/elements/1.1/"
   xmlns:cc="http://creativecommons.org/ns#"
   xmlns:rdf="http://www.w3.org/1999/02/22-rdf-syntax-ns#"
   xmlns:svg="http://www.w3.org/2000/svg"
   xmlns="http://www.w3.org/2000/svg"
   xmlns:sodipodi="http://sodipodi.sourceforge.net/DTD/sodipodi-0.dtd"
   xmlns:inkscape="http://www.inkscape.org/namespaces/inkscape"
   version="1.1"
   id="svg50"
   width="505.12405"
   height="575.51025"
   viewBox="0 0 505.12406 575.51026"
   sodipodi:docname="Meta-Physicist.svg"
   inkscape:version="1.0.1 (3bc2e813f5, 2020-09-07)">
  <metadata
     id="metadata56">
    <rdf:RDF>
      <cc:Work
         rdf:about="">
        <dc:format>image/svg+xml</dc:format>
        <dc:type
           rdf:resource="http://purl.org/dc/dcmitype/StillImage" />
        <dc:title></dc:title>
      </cc:Work>
    </rdf:RDF>
  </metadata>
  <defs
     id="defs54">
    <filter
       style="color-interpolation-filters:sRGB"
       inkscape:label="Colorize"
       id="filter84">
      <feColorMatrix
         values="-1 0 0 0 1 0 -1 0 0 1 0 0 -1 0 1 -0.21 -0.72 -0.07 2 0 "
         result="fbSourceGraphic"
         id="feColorMatrix82" />
      <feColorMatrix
         result="fbSourceGraphicAlpha"
         in="fbSourceGraphic"
         values="0 0 0 -1 0 0 0 0 -1 0 0 0 0 -1 0 0 0 0 1 0"
         id="feColorMatrix86" />
      <feComposite
         in2="fbSourceGraphic"
         id="feComposite88"
         operator="arithmetic"
         k1="0.463936"
         k2="1"
         result="composite1"
         in="fbSourceGraphic"
         k3="0"
         k4="0" />
      <feColorMatrix
         id="feColorMatrix90"
         in="composite1"
         values="1"
         type="saturate"
         result="colormatrix1" />
      <feFlood
         id="feFlood92"
         flood-opacity="1"
         flood-color="rgb(0,177,255)"
         result="flood1" />
      <feBlend
         in2="colormatrix1"
         id="feBlend94"
         in="flood1"
         mode="multiply"
         result="blend1" />
      <feBlend
         in2="blend1"
         id="feBlend96"
         mode="screen"
         result="blend2" />
      <feColorMatrix
         id="feColorMatrix98"
         in="blend2"
         values="1"
         type="saturate"
         result="colormatrix2" />
      <feComposite
         in2="fbSourceGraphic"
         id="feComposite100"
         in="colormatrix2"
         operator="in"
         result="composite2" />
    </filter>
  </defs>
  <sodipodi:namedview
     pagecolor="#ffffff"
     bordercolor="#666666"
     borderopacity="1"
     objecttolerance="10"
     gridtolerance="10"
     guidetolerance="10"
     inkscape:pageopacity="0"
     inkscape:pageshadow="2"
     inkscape:window-width="1920"
     inkscape:window-height="1028"
     id="namedview52"
     showgrid="false"
     inkscape:zoom="1.2084961"
     inkscape:cx="257.76837"
     inkscape:cy="316.63692"
     inkscape:window-x="0"
     inkscape:window-y="0"
     inkscape:window-maximized="1"
     inkscape:current-layer="g58" />
  <g
     inkscape:groupmode="layer"
     inkscape:label="Image"
     id="g58"
     transform="translate(96.791706,69.384255)">
    <path
       style="fill:#000000;stroke-width:1.33333;filter:url(#filter84)"
       d="m 151.16174,502.61256 c -10.15021,-2.47323 -17.33368,-7.98719 -22.68412,-17.41212 -2.52848,-4.454 -2.66708,-7.65874 -3.04128,-70.32267 -0.39205,-65.65602 -0.39205,-65.65602 -4,-66.52526 -3.94911,-0.95144 -16.58751,-7.26437 -21.14656,-10.56281 -2.783443,-2.01379 -3.259013,-1.61311 -15.429593,12.99979 -20.61269,24.74912 -38.55336,30.06754 -53.909243,15.98113 -17.16875,-15.7494 -13.9408,-30.14929 14.447473,-64.45023 12.905,-15.59283 12.90017,-15.58004 9.16657,-24.29019 -2.59676,-6.05797 -2.59676,-6.05797 -61.6666727,-6.44388 -57.6035503,-0.37632 -59.2023203,-0.45733 -64.4032503,-3.26378 -22.81331,-12.31016 -22.81331,-41.93406 0,-54.24422 5.15562,-2.782 7.17571,-2.90011 60.62497,-3.54456 55.29166,-0.66667 55.29166,-0.66667 56.897543,-6 3.37022,-11.19289 4.26301,-9.90509 -28.522513,-41.14169 -43.88716,-41.81377 -49.94211,-56.30451 -30.79643,-73.702352 17.7178203,-16.10031 30.31538,-11.42731 68.869943,25.546922 14.89043,14.28008 27.38472,25.96379 27.76509,25.96379 0.38038,0 4.58634,-3.30416 9.3466,-7.34259 9.271143,-7.86526 21.139143,-16.23035 28.106743,-19.81087 4.29193,-2.20553 4.29193,-2.20553 4.66666,-79.192715 0.37474,-76.987167 0.37474,-76.987167 3.55424,-82.987167 12.46531,-23.523061 42.50902,-23.523061 54.97433,0 3.1795,6 3.1795,6 3.55424,82.987167 0.37473,76.987185 0.37473,76.987185 4.66667,79.192715 6.9676,3.58052 18.8356,11.94561 28.10673,19.81087 4.76026,4.03843 8.96622,7.34259 9.3466,7.34259 0.38037,0 12.87466,-11.68371 27.76509,-25.96379 38.55456,-36.974232 51.15212,-41.647232 68.86994,-25.546922 19.14568,17.397842 13.09073,31.888582 -30.79643,73.702352 -32.78552,31.2366 -31.89274,29.9488 -28.52251,41.14169 1.60588,5.33333 1.60588,5.33333 56.89754,6 50.62967,0.61045 55.68512,0.87624 59.95831,3.15221 23.74406,12.64651 23.74406,42.38241 0,55.02891 -4.31698,2.2993 -9.09306,2.51447 -63.73659,2.87144 -59.06991,0.38591 -59.06991,0.38591 -61.66667,6.44388 -3.7336,8.71015 -3.73843,8.69736 9.16657,24.29019 28.38827,34.30094 31.61622,48.70083 14.44747,64.45023 -15.35588,14.08641 -33.29655,8.76799 -53.90924,-15.98113 -12.17058,-14.6129 -12.64615,-15.01358 -15.42959,-12.99979 -4.55905,3.29844 -17.19745,9.61137 -21.14656,10.56281 -3.60795,0.86924 -3.60795,0.86924 -4,66.52526 -0.42896,71.83471 -0.0632,68.42312 -8.37461,78.12132 -5.76427,6.72607 -19.92555,11.58515 -28.01746,9.61347 z"
       id="path124" />
    <path
       style="fill:#000000;stroke-width:5.43409"
       d="m 127.58441,496.05395 c -7.38122,-8.03739 -9.05963,-21.97888 -9.05963,-75.25352 0,-56.27911 -1.31419,-66.11331 -9.43327,-70.59076 -7.34104,-4.04842 -14.135424,-1.01592 -30.634223,13.67256 -21.63932,19.26502 -38.722894,21.08585 -57.068023,6.08256 -12.9674503,-10.60525 -8.130269,-43.71663 9.326664,-63.84236 8.909992,-10.27212 16.300107,-20.49724 16.422451,-22.72242 0.122251,-2.22518 -26.601648,-4.0458 -59.386723,-4.0458 -69.459384,0 -84.543362,-6.73719 -84.543362,-37.76076 0,-30.33612 15.546847,-37.76081 79.069235,-37.76081 29.774254,0 54.135023,-1.89658 54.135023,-4.21462 0,-2.31808 -14.880582,-18.70356 -33.0679945,-36.41219 C -27.349035,133.3202 -29.609157,129.46186 -28.131797,109.471 c 1.297978,-17.563323 4.444815,-22.878848 17.05453,-28.808091 20.5322079,-9.654453 37.051521,-1.535894 67.860186,29.398511 0,0 15.612452,15.37813 25.95498,19.30392 7.287282,2.7661 20.950011,-5.8508 20.950011,-5.8508 0,0 13.08622,-10.61213 14.83687,-18.06155 2.38194,-10.135697 0,-77.186966 0,-77.186966 0,-25.7289917 1.71586,-64.908574 4.26035,-72.389456 2.62706,-7.723632 5.61764,-12.454334 10.55663,-16.282742 10.35468,-8.026321 19.00985,-10.474206 28.73927,-8.128169 28.04888,6.763491 30.21298,13.366953 32.13074,98.04347 1.6584,73.225293 2.63599,79.557893 13.68534,88.650723 6.54466,5.38579 14.09719,9.87308 16.78336,9.97179 2.68618,0.0987 17.68874,-10.60064 33.33902,-23.77627 37.41614,-31.499919 52.75302,-35.229984 70.98452,-17.264102 7.67847,7.566571 13.96085,17.629562 13.96085,22.362142 0,15.8418 -15.45893,37.54277 -43.42804,60.96358 -15.25474,12.77398 -27.73587,25.51824 -27.73587,28.32057 0,2.86824 24.70432,5.09508 56.52432,5.09508 52.00635,0 57.47572,0.99793 68.42687,12.48511 16.3231,17.12201 15.30624,38.03744 -2.52113,51.85614 -12.48489,9.67756 -22.05017,11.18032 -71.16391,11.18032 -31.20717,0 -56.74033,2.09372 -56.74033,4.65266 0,2.55894 7.39009,13.81641 16.42245,25.01655 20.09216,24.91434 20.79341,42.03548 2.4616,60.10021 -16.71933,16.47575 -35.41833,14.15082 -58.24484,-7.24168 -26.42061,-24.76095 -31.80311,-15.59927 -31.80311,54.13263 0,54.02682 -1.37502,63.19993 -11.34562,75.69084 -13.75354,17.2301 -42.37052,19.44305 -56.23284,4.34853 z m 42.63435,-18.30732 c 6.52555,-9.18074 8.52166,-26.66822 8.52166,-74.65569 0,-61.91824 0.16621,-62.74135 13.94295,-68.92686 21.85255,-9.81165 32.31664,-7.52489 45.40711,9.92291 13.09275,17.4509 32.03025,21.38029 37.33897,7.7476 3.68819,-9.47123 -3.27062,-25.07572 -20.68639,-46.38738 -8.3978,-10.27644 -10.72733,-18.33706 -8.18457,-28.32057 3.54222,-13.90766 3.75282,-13.95562 61.28858,-13.95562 61.35396,0 78.91099,-4.80083 78.91099,-21.57757 0,-16.63815 -17.46126,-21.57763 -76.27823,-21.57763 0,0 -43.77218,-1.66762 -49.20067,-7.74748 -3.92965,-4.40118 -5.90066,-9.95317 -5.90066,-9.95317 0,-14.49255 5.98759,-23.53613 33.03682,-49.89815 22.10914,-21.54742 32.52068,-35.76614 31.47633,-42.9863 -2.9342,-20.286488 -22.09828,-15.257154 -50.62859,13.28666 -14.93711,14.94422 -32.04532,27.17129 -38.01825,27.17129 -5.97287,0 -20.22986,-6.39882 -31.68209,-14.21962 0,0 -13.75242,-10.82434 -15.46922,-17.01118 -6.27973,-22.630299 -5.35308,-71.398769 -5.35308,-71.398769 0,-65.412005 -1.25485,-75.697115 -10.60532,-86.925294 -8.63448,-10.368331 -12.44941,-11.62479 -20.5281,-6.761016 -8.72857,5.255045 -10.10479,15.438519 -11.43561,84.621136 0,0 0.90713,67.546643 -4.77021,77.262213 -4.51661,7.72922 -17.91412,17.90873 -17.91412,17.90873 -11.6443,9.08812 -25.348953,16.5238 -30.454728,16.5238 -5.105813,0 -23.102432,-12.13738 -39.992553,-26.97198 C 10.732357,94.54107 4.384557,91.903059 -6.2858038,102.41801 c -10.5631552,10.40926 -8.4277982,14.25596 29.2810468,52.74652 30.886918,31.52716 35.351862,38.54926 32.251467,50.72224 -3.580798,14.05912 -3.868562,14.12905 -58.1065043,14.12905 -68.6516117,0 -85.9499417,7.95935 -70.3429957,32.36644 3.945812,6.17069 20.4948,8.73187 69.7115495,10.78876 0,0 39.3204055,1.50226 54.5039685,4.64067 11.63676,2.4053 11.754307,12.77548 11.754307,12.77548 1.19088,10.18615 -3.658291,21.315 -15.746407,36.13789 -17.876282,21.92061 -18.578748,35.47523 -2.160204,41.68385 5.466115,2.06698 15.267197,-2.98768 26.386964,-13.60834 19.932658,-19.03802 30.683652,-20.79062 50.207062,-8.18476 13.1339,8.48027 13.49277,10.4818 13.49277,75.25349 0,57.68198 1.27548,67.27361 9.57974,72.03991 13.67276,7.84761 16.15718,7.2517 25.6918,-6.16258 z"
       id="path116"
       sodipodi:nodetypes="sssssscsssssscsscscsscssssssssssssssssssssscsssssssssscssssssssscsssssssssssssssss" />
  </g>
</svg>
