<?xml version="1.0" encoding="UTF-8" standalone="no"?>
<svg
   xmlns:dc="http://purl.org/dc/elements/1.1/"
   xmlns:cc="http://creativecommons.org/ns#"
   xmlns:rdf="http://www.w3.org/1999/02/22-rdf-syntax-ns#"
   xmlns:svg="http://www.w3.org/2000/svg"
   xmlns="http://www.w3.org/2000/svg"
   xmlns:sodipodi="http://sodipodi.sourceforge.net/DTD/sodipodi-0.dtd"
   xmlns:inkscape="http://www.inkscape.org/namespaces/inkscape"
   version="1.1"
   id="svg50"
   width="512"
   height="512"
   viewBox="0 0 512.00001 512.00001"
   sodipodi:docname="Meta-Physicist.svg"
   inkscape:version="1.0.1 (3bc2e813f5, 2020-09-07)">
  <metadata
     id="metadata56">
    <rdf:RDF>
      <cc:Work
         rdf:about="">
        <dc:format>image/svg+xml</dc:format>
        <dc:type
           rdf:resource="http://purl.org/dc/dcmitype/StillImage" />
        <dc:title></dc:title>
      </cc:Work>
    </rdf:RDF>
  </metadata>
  <defs
     id="defs54">
    <filter
       style="color-interpolation-filters:sRGB"
       inkscape:label="Colorize"
       id="filter84">
      <feColorMatrix
         values="-1 0 0 0 1 0 -1 0 0 1 0 0 -1 0 1 -0.21 -0.72 -0.07 2 0 "
         result="fbSourceGraphic"
         id="feColorMatrix82" />
      <feColorMatrix
         result="fbSourceGraphicAlpha"
         in="fbSourceGraphic"
         values="0 0 0 -1 0 0 0 0 -1 0 0 0 0 -1 0 0 0 0 1 0"
         id="feColorMatrix86" />
      <feComposite
         in2="fbSourceGraphic"
         id="feComposite88"
         operator="arithmetic"
         k1="0.463936"
         k2="1"
         result="composite1"
         in="fbSourceGraphic"
         k3="0"
         k4="0" />
      <feColorMatrix
         id="feColorMatrix90"
         in="composite1"
         values="1"
         type="saturate"
         result="colormatrix1" />
      <feFlood
         id="feFlood92"
         flood-opacity="1"
         flood-color="rgb(0,177,255)"
         result="flood1" />
      <feBlend
         in2="colormatrix1"
         id="feBlend94"
         in="flood1"
         mode="multiply"
         result="blend1" />
      <feBlend
         in2="blend1"
         id="feBlend96"
         mode="screen"
         result="blend2" />
      <feColorMatrix
         id="feColorMatrix98"
         in="blend2"
         values="1"
         type="saturate"
         result="colormatrix2" />
      <feComposite
         in2="fbSourceGraphic"
         id="feComposite100"
         in="colormatrix2"
         operator="in"
         result="composite2" />
    </filter>
  </defs>
  <sodipodi:namedview
     pagecolor="#ffffff"
     bordercolor="#666666"
     borderopacity="1"
     objecttolerance="10"
     gridtolerance="10"
     guidetolerance="10"
     inkscape:pageopacity="0"
     inkscape:pageshadow="2"
     inkscape:window-width="1920"
     inkscape:window-height="1028"
     id="namedview52"
     showgrid="false"
     inkscape:zoom="1.2084961"
     inkscape:cx="257.76837"
     inkscape:cy="316.63692"
     inkscape:window-x="0"
     inkscape:window-y="0"
     inkscape:window-maximized="1"
     inkscape:current-layer="g58"
     inkscape:document-rotation="0" />
  <g
     inkscape:groupmode="layer"
     inkscape:label="Image"
     id="g58"
     transform="translate(96.791706,69.384255)">
    <path
       style="fill:#000000;stroke-width:1.33333;filter:url(#filter84)"
       d="m 151.16174,502.61256 c -10.15021,-2.47323 -17.33368,-7.98719 -22.68412,-17.41212 -2.52848,-4.454 -2.66708,-7.65874 -3.04128,-70.32267 -0.39205,-65.65602 -0.39205,-65.65602 -4,-66.52526 -3.94911,-0.95144 -16.58751,-7.26437 -21.14656,-10.56281 -2.783443,-2.01379 -3.259013,-1.61311 -15.429593,12.99979 -20.61269,24.74912 -38.55336,30.06754 -53.909243,15.98113 -17.16875,-15.7494 -13.9408,-30.14929 14.447473,-64.45023 12.905,-15.59283 12.90017,-15.58004 9.16657,-24.29019 -2.59676,-6.05797 -2.59676,-6.05797 -61.6666727,-6.44388 -57.6035503,-0.37632 -59.2023203,-0.45733 -64.4032503,-3.26378 -22.81331,-12.31016 -22.81331,-41.93406 0,-54.24422 5.15562,-2.782 7.17571,-2.90011 60.62497,-3.54456 55.29166,-0.66667 55.29166,-0.66667 56.897543,-6 3.37022,-11.19289 4.26301,-9.90509 -28.522513,-41.14169 -43.88716,-41.81377 -49.94211,-56.30451 -30.79643,-73.702352 17.7178203,-16.10031 30.31538,-11.42731 68.869943,25.546922 14.89043,14.28008 27.38472,25.96379 27.76509,25.96379 0.38038,0 4.58634,-3.30416 9.3466,-7.34259 9.271143,-7.86526 21.139143,-16.23035 28.106743,-19.81087 4.29193,-2.20553 4.29193,-2.20553 4.66666,-79.192715 0.37474,-76.987167 0.37474,-76.987167 3.55424,-82.987167 12.46531,-23.523061 42.50902,-23.523061 54.97433,0 3.1795,6 3.1795,6 3.55424,82.987167 0.37473,76.987185 0.37473,76.987185 4.66667,79.192715 6.9676,3.58052 18.8356,11.94561 28.10673,19.81087 4.76026,4.03843 8.96622,7.34259 9.3466,7.34259 0.38037,0 12.87466,-11.68371 27.76509,-25.96379 38.55456,-36.974232 51.15212,-41.647232 68.86994,-25.546922 19.14568,17.397842 13.09073,31.888582 -30.79643,73.702352 -32.78552,31.2366 -31.89274,29.9488 -28.52251,41.14169 1.60588,5.33333 1.60588,5.33333 56.89754,6 50.62967,0.61045 55.68512,0.87624 59.95831,3.15221 23.74406,12.64651 23.74406,42.38241 0,55.02891 -4.31698,2.2993 -9.09306,2.51447 -63.73659,2.87144 -59.06991,0.38591 -59.06991,0.38591 -61.66667,6.44388 -3.7336,8.71015 -3.73843,8.69736 9.16657,24.29019 28.38827,34.30094 31.61622,48.70083 14.44747,64.45023 -15.35588,14.08641 -33.29655,8.76799 -53.90924,-15.98113 -12.17058,-14.6129 -12.64615,-15.01358 -15.42959,-12.99979 -4.55905,3.29844 -17.19745,9.61137 -21.14656,10.56281 -3.60795,0.86924 -3.60795,0.86924 -4,66.52526 -0.42896,71.83471 -0.0632,68.42312 -8.37461,78.12132 -5.76427,6.72607 -19.92555,11.58515 -28.01746,9.61347 z"
       id="path124"
       transform="matrix(0.771294,0,0,0.771294,39.330866,9.7729945)" />
    <path
       style="fill:#000000;stroke-width:4.19128"
       d="m 137.73596,392.37643 c -5.69309,-6.19919 -6.98764,-16.95218 -6.98764,-58.04259 0,-43.40774 -1.01363,-50.9928 -7.27583,-54.44623 -5.66209,-3.12252 -10.90256,-0.78358 -23.627986,10.54556 -16.690281,14.859 -29.866739,16.2634 -44.016227,4.69145 -10.001717,-8.17977 -6.270828,-33.71837 7.193599,-49.24124 6.872225,-7.92281 12.572175,-15.80939 12.666539,-17.52566 0.0943,-1.71627 -20.517691,-3.1205 -45.804624,-3.1205 -53.573606,0 -65.207787,-5.19635 -65.207787,-29.12465 0,-23.39806 11.99119,-29.12469 60.985626,-29.12469 22.964703,0 41.754019,-1.46281 41.754019,-3.2507 0,-1.78792 -11.477304,-14.42595 -25.505146,-28.0845 C 18.236719,112.60206 16.4935,109.62615 17.632979,94.207323 18.634102,80.660838 21.061239,76.561 30.787037,71.987814 c 15.836368,-7.446429 28.577615,-1.184631 52.340154,22.674889 0,0 12.04179,11.861067 20.018919,14.889007 5.62064,2.13347 16.15862,-4.51269 16.15862,-4.51269 0,0 10.09332,-8.185079 11.44359,-13.93077 1.83717,-7.817604 0,-59.533841 0,-59.533841 0,-19.844617 1.32343,-50.063594 3.28598,-55.833554 2.02624,-5.957191 4.33285,-9.605952 8.14226,-12.558781 7.9865,-6.190653 14.66218,-8.078692 22.16644,-6.269207 21.63392,5.21664 23.30308,10.30985 24.78224,75.620339 1.27911,56.478226 2.03312,61.362521 10.55542,68.375764 5.04786,4.15403 10.87307,7.61506 12.9449,7.69119 2.07184,0.0761 13.64322,-8.17621 25.71419,-18.3385 28.85885,-24.295692 40.68808,-27.172667 54.74993,-13.315693 5.92236,5.836047 10.76792,13.597576 10.76792,17.247782 0,12.218691 -11.92337,28.956511 -33.49578,47.020841 -11.76589,9.8525 -21.39251,19.68208 -21.39251,21.84349 0,2.21225 19.05429,3.9298 43.59686,3.9298 40.11219,0 44.33068,0.76971 52.77724,9.6297 12.58991,13.20609 11.80561,29.33805 -1.94453,39.99633 -9.62952,7.46424 -17.00717,8.62331 -54.8883,8.62331 -24.0699,0 -43.76347,1.61487 -43.76347,3.58856 0,1.9737 5.69993,10.65652 12.66653,19.29513 15.49697,19.21628 16.03783,32.4217 1.89863,46.35492 -12.89553,12.70765 -27.31795,10.91445 -44.92391,-5.58546 -20.37805,-19.09798 -24.52954,-12.03162 -24.52954,41.75218 0,41.67056 -1.06055,48.74572 -8.75081,58.37988 -10.60803,13.28948 -32.68013,14.99632 -43.37205,3.354 z m 32.88362,-14.12032 c 5.03311,-7.08106 6.5727,-20.56905 6.5727,-57.5815 0,-47.75716 0.12819,-48.39202 10.75412,-53.16287 16.85474,-7.56767 24.92563,-5.8039 35.02222,7.65348 10.09836,13.45978 24.70475,16.4905 28.79933,5.97568 2.84468,-7.30511 -2.52261,-19.34076 -15.95529,-35.77831 -6.47717,-7.92615 -8.27392,-14.14326 -6.31271,-21.84348 2.73209,-10.7269 2.89453,-10.76389 47.27152,-10.76389 47.32193,0 60.86357,-3.70285 60.86357,-16.64265 0,-12.83291 -13.46777,-16.64269 -58.83294,-16.64269 0,0 -33.76123,-1.28623 -37.94819,-5.97559 -3.03091,-3.3946 -4.55114,-7.67682 -4.55114,-7.67682 0,-11.17801 4.6182,-18.15327 25.48111,-38.48614 17.05263,-16.6194 25.083,-27.586209 24.27749,-33.155074 -2.26313,-15.646849 -17.04426,-11.767754 -39.04952,10.247914 -11.5209,11.52639 -24.71636,20.95705 -29.32325,20.95705 -4.60684,0 -15.60317,-4.93537 -24.4362,-10.9675 0,0 -10.60716,-8.34875 -11.93132,-13.12062 -4.84352,-17.454618 -4.1288,-55.069445 -4.1288,-55.069445 0,-50.4518866 -0.96786,-58.384731 -8.17982,-67.044958 -6.65973,-7.997031 -9.60215,-8.966131 -15.8332,-5.214731 -6.7323,4.053185 -7.79376,11.907637 -8.82021,65.267775 0,0 0.69966,52.098317 -3.67924,59.591878 -3.48364,5.961501 -13.81706,13.812901 -13.81706,13.812901 -8.98117,7.00961 -19.55149,12.7447 -23.48954,12.7447 -3.938091,0 -17.818772,-9.36148 -30.846021,-20.80332 C 47.608668,82.691957 42.712648,80.657271 34.482663,88.767387 c -8.147298,8.028608 -6.50031,10.995537 22.584296,40.683083 23.822895,24.31671 27.266679,29.7328 24.875363,39.12175 -2.761848,10.84372 -2.983799,10.89766 -44.817198,10.89766 -52.950576,0 -66.292675,6.139 -54.255131,24.96404 3.043381,4.75942 15.8075165,6.73483 53.7681,8.3213 0,0 30.327593,1.15868 42.038584,3.57932 8.975363,1.8552 9.066027,9.85365 9.066027,9.85365 0.918518,7.85652 -2.821618,16.44014 -12.14511,27.87294 -13.787868,16.90724 -14.329677,27.36184 -1.666153,32.15051 4.215982,1.59424 11.775498,-2.30438 20.352108,-10.49604 15.373941,-14.68391 23.666111,-16.03568 38.724401,-6.31286 10.1301,6.54079 10.4069,8.08455 10.4069,58.04257 0,44.48977 0.98377,51.88773 7.38879,55.56395 10.54572,6.05282 12.46194,5.5932 19.81594,-4.75315 z"
       id="path116"
       sodipodi:nodetypes="sssssscsssssscsscscsscssssssssssssssssssssscsssssssssscssssssssscsssssssssssssssss" />
  </g>
</svg>
