<?xml version="1.0" encoding="UTF-8" standalone="no"?>
<svg
   xmlns:dc="http://purl.org/dc/elements/1.1/"
   xmlns:cc="http://creativecommons.org/ns#"
   xmlns:rdf="http://www.w3.org/1999/02/22-rdf-syntax-ns#"
   xmlns:svg="http://www.w3.org/2000/svg"
   xmlns="http://www.w3.org/2000/svg"
   xmlns:sodipodi="http://sodipodi.sourceforge.net/DTD/sodipodi-0.dtd"
   xmlns:inkscape="http://www.inkscape.org/namespaces/inkscape"
   version="1.1"
   id="svg309"
   width="512"
   height="512"
   viewBox="0 0 512.00001 512.00001"
   sodipodi:docname="Nano-Technician.svg"
   inkscape:version="1.0.1 (3bc2e813f5, 2020-09-07)">
  <metadata
     id="metadata315">
    <rdf:RDF>
      <cc:Work
         rdf:about="">
        <dc:format>image/svg+xml</dc:format>
        <dc:type
           rdf:resource="http://purl.org/dc/dcmitype/StillImage" />
        <dc:title></dc:title>
      </cc:Work>
    </rdf:RDF>
  </metadata>
  <defs
     id="defs313">
    <filter
       style="color-interpolation-filters:sRGB"
       inkscape:label="Colorize"
       id="filter325">
      <feColorMatrix
         values="-1 0 0 0 1 0 -1 0 0 1 0 0 -1 0 1 -0.21 -0.72 -0.07 2 0 "
         result="fbSourceGraphic"
         id="feColorMatrix323" />
      <feColorMatrix
         result="fbSourceGraphicAlpha"
         in="fbSourceGraphic"
         values="0 0 0 -1 0 0 0 0 -1 0 0 0 0 -1 0 0 0 0 1 0"
         id="feColorMatrix327" />
      <feComposite
         in2="fbSourceGraphic"
         id="feComposite329"
         operator="arithmetic"
         k1="0.463936"
         k2="1"
         result="composite1"
         in="fbSourceGraphic"
         k3="0"
         k4="0" />
      <feColorMatrix
         id="feColorMatrix331"
         in="composite1"
         values="1"
         type="saturate"
         result="colormatrix1" />
      <feFlood
         id="feFlood333"
         flood-opacity="1"
         flood-color="rgb(0,177,255)"
         result="flood1" />
      <feBlend
         in2="colormatrix1"
         id="feBlend335"
         in="flood1"
         mode="multiply"
         result="blend1" />
      <feBlend
         in2="blend1"
         id="feBlend337"
         mode="screen"
         result="blend2" />
      <feColorMatrix
         id="feColorMatrix339"
         in="blend2"
         values="1"
         type="saturate"
         result="colormatrix2" />
      <feComposite
         in2="fbSourceGraphic"
         id="feComposite341"
         in="colormatrix2"
         operator="in"
         result="composite2" />
    </filter>
  </defs>
  <sodipodi:namedview
     pagecolor="#ffffff"
     bordercolor="#666666"
     borderopacity="1"
     objecttolerance="10"
     gridtolerance="10"
     guidetolerance="10"
     inkscape:pageopacity="0"
     inkscape:pageshadow="2"
     inkscape:window-width="1920"
     inkscape:window-height="1028"
     id="namedview311"
     showgrid="false"
     inkscape:zoom="0.88250236"
     inkscape:cx="127.97769"
     inkscape:cy="319.7851"
     inkscape:window-x="0"
     inkscape:window-y="0"
     inkscape:window-maximized="1"
     inkscape:current-layer="g317"
     inkscape:document-rotation="0" />
  <g
     inkscape:groupmode="layer"
     inkscape:label="Image"
     id="g317"
     transform="translate(-294.82206,-47.622921)">
    <path
       style="fill:#000000;stroke-width:1.33333;filter:url(#filter325)"
       d="m 552.47733,611.32971 c -15.28694,-3.96356 -23.21534,-15.56127 -24.18233,-35.37401 -3.36448,-68.93563 -4.2279,-77.05723 -10.48918,-98.66358 -6.929,-23.91052 -26.83744,-53.04916 -50.87714,-74.46546 -35.16805,-31.33022 -57.84884,-39.43674 -114.45136,-40.90693 -45.80243,-1.18967 -54.38175,-7.19239 -54.38175,-30.98245 0,-24.24582 8.71447,-31.88891 53.71508,-33.16157 54.51396,-1.54168 77.74984,-9.99481 112.45137,-40.90942 24.03969,-21.4163 43.94813,-50.55494 50.87713,-74.46546 6.26128,-21.60635 7.12471,-29.72795 10.48919,-98.66358 2.41953,-49.57443 60.85284,-47.676091 63.05216,2.04839 4.18956,94.72206 7.27941,107.61502 34.4476,143.73873 24.21423,32.19601 52.93715,54.63368 80.68256,63.02732 9.1082,2.75545 13.6861,3.10394 51.33334,3.90782 56.84984,1.21391 61.74786,7.29894 59.9458,33.95527 -1.82178,26.94795 -6.47439,32.94579 -59.9458,34.16642 -34.80591,0.79454 -39.66515,1.18401 -48.66667,3.90065 -27.71915,8.36557 -56.46309,30.81708 -80.68256,63.02007 -27.16819,36.12371 -30.25804,49.01667 -34.4476,143.73872 -1.12966,25.54024 -18.2496,41.43542 -38.86984,36.08907 z"
       id="path321"
       sodipodi:nodetypes="ssssssssssssssssssss"
       transform="matrix(0.79334195,0,0,0.79334195,108.5767,42.859529)" />
    <path
       style="fill:#000000;stroke-width:4.23069"
       d="m 530.60804,520.59431 c -5.86519,-6.4831 -8.45174,-18.6254 -10.61523,-49.83247 -6.00234,-86.58017 -47.02379,-129.41617 -130.12388,-135.87989 -38.79215,-3.01732 -47.39752,-8.46015 -47.39752,-29.97856 0,-21.51845 8.60537,-26.96127 47.39752,-29.9786 83.10009,-6.46371 124.12154,-49.29973 130.12388,-135.8799 3.2707,-47.1786 9.39508,-58.4041 31.86381,-58.4041 22.4687,0 28.59304,11.2255 31.86381,58.4041 6.00232,86.58017 47.02378,129.41619 130.12386,135.8799 38.79217,3.01733 47.39753,8.46015 47.39753,29.9786 0,21.51841 -8.60536,26.96124 -47.39753,29.97856 -83.10008,6.46372 -124.12154,49.29972 -130.12386,135.87989 -3.27077,47.17858 -9.39511,58.40411 -31.86381,58.40411 -8.17892,0 -16.54828,-3.37615 -21.24858,-8.57164 z m 33.37577,-13.64305 c 3.48718,-5.55443 6.81037,-25.46552 7.97715,-47.79592 4.33717,-83.00544 49.92833,-130.72139 130.15619,-136.2221 64.5264,-4.42418 64.5264,-31.63555 0,-36.05974 -80.22786,-5.50071 -125.81902,-53.21665 -130.15619,-136.22209 -4.14401,-79.308828 -36.06471,-79.308828 -40.2087,0 -4.33716,83.00544 -49.92831,130.72138 -130.1562,136.22209 -64.52638,4.42419 -64.52638,31.63556 0,36.05974 80.22789,5.50071 125.81904,53.21666 130.1562,136.2221 2.02981,38.84668 8.50828,57.3165 20.10436,57.3165 3.38248,0 8.83972,-4.28426 12.12719,-9.52058 z"
       id="path357" />
  </g>
</svg>
