<?xml version="1.0" encoding="UTF-8" standalone="no"?>
<svg
   xmlns:dc="http://purl.org/dc/elements/1.1/"
   xmlns:cc="http://creativecommons.org/ns#"
   xmlns:rdf="http://www.w3.org/1999/02/22-rdf-syntax-ns#"
   xmlns:svg="http://www.w3.org/2000/svg"
   xmlns="http://www.w3.org/2000/svg"
   xmlns:sodipodi="http://sodipodi.sourceforge.net/DTD/sodipodi-0.dtd"
   xmlns:inkscape="http://www.inkscape.org/namespaces/inkscape"
   version="1.1"
   id="svg44"
   width="512"
   height="512"
   viewBox="0 0 511.99999 512.00001"
   sodipodi:docname="shade.svg"
   inkscape:version="1.0.1 (3bc2e813f5, 2020-09-07)">
  <metadata
     id="metadata50">
    <rdf:RDF>
      <cc:Work
         rdf:about="">
        <dc:format>image/svg+xml</dc:format>
        <dc:type
           rdf:resource="http://purl.org/dc/dcmitype/StillImage" />
        <dc:title></dc:title>
      </cc:Work>
    </rdf:RDF>
  </metadata>
  <defs
     id="defs48">
    <filter
       style="color-interpolation-filters:sRGB"
       inkscape:label="Colorize"
       id="filter74">
      <feColorMatrix
         values="-1 0 0 0 1 0 -1 0 0 1 0 0 -1 0 1 -0.21 -0.72 -0.07 2 0 "
         result="fbSourceGraphic"
         id="feColorMatrix72" />
      <feColorMatrix
         result="fbSourceGraphicAlpha"
         in="fbSourceGraphic"
         values="0 0 0 -1 0 0 0 0 -1 0 0 0 0 -1 0 0 0 0 1 0"
         id="feColorMatrix76" />
      <feComposite
         in2="fbSourceGraphic"
         id="feComposite78"
         operator="arithmetic"
         k1="0.463936"
         k2="1"
         result="composite1"
         in="fbSourceGraphic"
         k3="0"
         k4="0" />
      <feColorMatrix
         id="feColorMatrix80"
         in="composite1"
         values="1"
         type="saturate"
         result="colormatrix1" />
      <feFlood
         id="feFlood82"
         flood-opacity="1"
         flood-color="rgb(0,177,255)"
         result="flood1" />
      <feBlend
         in2="colormatrix1"
         id="feBlend84"
         in="flood1"
         mode="multiply"
         result="blend1" />
      <feBlend
         in2="blend1"
         id="feBlend86"
         mode="screen"
         result="blend2" />
      <feColorMatrix
         id="feColorMatrix88"
         in="blend2"
         values="1"
         type="saturate"
         result="colormatrix2" />
      <feComposite
         in2="fbSourceGraphic"
         id="feComposite90"
         in="colormatrix2"
         operator="in"
         result="composite2" />
    </filter>
  </defs>
  <sodipodi:namedview
     pagecolor="#ffffff"
     bordercolor="#666666"
     borderopacity="1"
     objecttolerance="10"
     gridtolerance="10"
     guidetolerance="10"
     inkscape:pageopacity="0"
     inkscape:pageshadow="2"
     inkscape:window-width="1920"
     inkscape:window-height="1028"
     id="namedview46"
     showgrid="false"
     inkscape:zoom="1.2588501"
     inkscape:cx="301.30918"
     inkscape:cy="266.43018"
     inkscape:window-x="0"
     inkscape:window-y="0"
     inkscape:window-maximized="1"
     inkscape:current-layer="g52"
     inkscape:document-rotation="0" />
  <g
     inkscape:groupmode="layer"
     inkscape:label="Image"
     id="g52"
     transform="translate(-28.906835,-5.0546944)">
    <path
       style="fill:#000000;stroke-width:0.32;filter:url(#filter74)"
       d="m 101.77827,162.50498 c -9.897318,-1.17679 -13.849616,-2.31903 -23.004454,-6.64843 -21.375511,-10.10866 -25.66401,-20.419 -17.650762,-42.43568 3.628924,-8.8894 2.301815,-16.376791 1.782295,-24.798444 -0.751197,-12.480682 -3.745136,-12.719981 -7.849684,-0.627408 -1.661103,5.529051 -4.552098,11.01672 -6.44888,16.242522 -4.616406,12.79856 -10.303616,17.75324 -16.719974,14.56641 -3.762608,-1.86879 -3.750605,-5.56948 0.04336,-13.36893 5.680813,-12.083453 9.587709,-17.78609 13.210195,-35.548088 0.424227,-1.129591 0.737815,-3.414423 1.599191,-11.651914 1.544275,-14.768163 4.658722,-17.050322 15.32357,-19.048735 6.45079,-1.208768 7.317162,-6.130372 6.549898,-18.391265 C 67.917211,9.6759482 70.599359,7.902511 79.572776,7.4605709 c 9.16129,-0.451193 11.451286,0.7852137 11.000544,17.3344471 -0.291107,10.688128 0.947437,12.340714 5.39546,14.620176 10.81684,5.543267 14.3344,2.328149 14.38466,16.419824 0.0286,8.024272 1.69323,11.079638 4.71147,18.24 5.93124,14.071062 9.97045,21.480334 15.00843,26.587982 4.32719,4.38704 6.10101,5.60908 6.10101,9.5511 0,5.3979 -1.40777,6.85136 -8.72068,4.50882 -5.84504,-1.87233 -17.09539,-10.61457 -21.31126,-16.560209 -2.81167,-3.965299 -6.03252,-8.936829 -6.965293,-10.751264 -1.26866,-2.467827 -3.6517,-3.082301 -5.858789,-1.510714 -1.191171,0.848189 -2.462567,5.376151 -2.744499,9.774285 -0.652167,10.173852 -1.685252,14.951092 -4.63642,21.440002 -6.141548,13.50378 -6.116726,14.1485 0.830429,21.56944 8.230669,8.79198 15.260092,11.43505 26.253082,14.21484 9.10887,2.30335 17.01457,4.9113 7.26733,7.74341 -5.8441,1.69804 -13.45293,2.46356 -18.50998,1.86227 z"
       id="path56"
       sodipodi:nodetypes="ssccccsccssssssssssssssssssss"
       transform="matrix(3.0264732,0,0,3.0264732,34.568309,22.659678)" />
    <path
       style="fill:#000000;stroke-width:3.9059"
       d="m 273.2848,504.30429 c -66.1583,-31.99688 -82.12112,-65.86802 -60.50434,-128.38288 9.67605,-27.98262 11.40908,-51.03276 6.38394,-84.9086 l -2.63625,-17.77161 -18.94057,48.63548 c -21.71021,55.74733 -33.62523,71.81633 -53.25123,71.81633 -25.61546,0 -28.87147,-17.05766 -11.18117,-58.57667 21.26898,-49.91845 35.66464,-97.50883 39.2863,-129.87618 1.11526,-9.96759 2.70154,-20.23411 4.28384,-28.25285 1.25157,-6.34273 2.50066,-11.27912 3.51215,-13.54878 4.85469,-10.89269 21.8304,-19.05511 34.04013,-22.49684 4.28568,-1.20807 11.57242,-3.55431 15.8217,-7.89847 6.50128,-6.64642 7.72596,-13.16414 7.72596,-41.115965 0,-32.244176 0.34889,-33.517048 11.88533,-43.441624 16.07761,-13.830513 38.79341,-14.062144 52.02944,-0.53056 8.61831,8.810717 9.48736,12.857162 9.54108,44.428927 0.0362,19.104442 1.33624,36.681992 2.89724,39.061222 1.56088,2.37922 9.75065,5.44286 18.19948,6.80808 18.60464,3.00628 33.75768,13.87583 37.27756,26.73985 1.43234,5.23439 2.77752,19.51231 2.98922,31.72868 0.69655,40.20519 25.77735,95.29129 58.98826,129.56125 22.70191,23.42583 26.3726,32.92409 18.5206,47.92335 -4.82269,9.21243 -24.91723,10.26749 -43.44675,2.2812 -21.66507,-9.33766 -50.967,-36.22558 -66.72618,-61.22904 -8.38098,-13.29721 -16.585,-24.19225 -18.23098,-24.21126 -4.93386,-0.0568 -9.26379,16.11282 -12.08909,45.14574 -1.61401,16.58496 -7.1715,37.90041 -14.07333,53.97668 -6.27337,14.61238 -9.47684,24.29722 -9.44608,30.74028 0.058,12.14877 26.27868,36.35541 42.36403,45.99261 9.14898,5.48137 27.69022,11.81677 41.20284,14.07864 32.51038,5.44181 45.8146,10.96815 45.8146,19.03044 0,14.10406 -7.90632,16.10783 -63.54608,16.10462 -52.24372,-0.003 -55.18876,-0.44548 -78.69165,-11.81205 z m 113.26536,2.29782 15.45194,-4.96112 c -16.81727,-9.87042 -33.06147,-10.66944 -49.95173,-14.3013 -31.68146,-7.15052 -79.45825,-41.50281 -79.45825,-66.01564 0,-6.05386 5.1863,-23.46688 11.5251,-38.69555 7.17609,-17.23991 12.84781,-39.7741 15.03003,-59.71505 3.90934,-35.72237 8.208,-43.7484 23.43117,-43.7484 8.57798,0 13.7644,5.00688 29.46516,28.44461 29.11965,43.46958 81.62027,76.45202 89.26693,56.08023 1.6194,-4.31448 -4.63983,-13.13668 -19.80809,-27.91864 -32.53994,-31.71123 -55.95544,-83.42195 -59.91766,-132.32205 -3.37742,-41.68407 -8.11852,-48.73244 -36.41572,-54.13697 -10.32974,-1.97287 -20.27451,-5.99621 -22.09954,-8.94073 -1.82501,-2.94452 -3.34485,-20.90379 -3.37733,-39.90952 -0.0483,-29.240575 -1.24751,-35.770767 -7.78512,-42.454314 -9.87077,-10.091213 -19.51568,-10.005658 -32.31446,0.286708 -9.40553,7.563628 -10.18271,10.487225 -10.23535,38.505078 -0.0725,39.020348 -4.57908,47.802808 -28.56785,55.683128 -25.52937,8.38637 -32.07231,18.90366 -36.89657,59.3094 -4.1451,34.71655 -19.64303,86.0601 -39.64955,131.35633 -12.33559,27.92877 -12.14245,38.697 0.69413,38.697 10.6715,0 23.91742,-21.75408 40.87943,-67.13706 16.828,-45.0247 22.83748,-55.28935 32.36915,-55.28935 9.97073,0 12.27077,8.04668 14.67547,51.34009 1.83987,33.12441 0.89573,41.35699 -8.06518,70.30289 -12.11721,39.14303 -12.53128,49.23542 -2.68598,65.47977 14.14117,23.33214 67.25033,56.41583 100.70051,62.72993 18.55524,3.50256 48.41006,2.25215 63.73924,-2.66947 z"
       id="path70"
       sodipodi:nodetypes="csscssccscssscsccsccsssscsssssssccccsccscsscssccscscsscssccssc" />
  </g>
</svg>
