<?xml version="1.0" encoding="UTF-8" standalone="no"?>
<svg
   xmlns:dc="http://purl.org/dc/elements/1.1/"
   xmlns:cc="http://creativecommons.org/ns#"
   xmlns:rdf="http://www.w3.org/1999/02/22-rdf-syntax-ns#"
   xmlns:svg="http://www.w3.org/2000/svg"
   xmlns="http://www.w3.org/2000/svg"
   xmlns:sodipodi="http://sodipodi.sourceforge.net/DTD/sodipodi-0.dtd"
   xmlns:inkscape="http://www.inkscape.org/namespaces/inkscape"
   version="1.1"
   id="svg44"
   width="109.65109"
   height="157.99207"
   viewBox="0 0 109.65109 157.99207"
   sodipodi:docname="shade.svg"
   inkscape:version="1.0.1 (3bc2e813f5, 2020-09-07)">
  <metadata
     id="metadata50">
    <rdf:RDF>
      <cc:Work
         rdf:about="">
        <dc:format>image/svg+xml</dc:format>
        <dc:type
           rdf:resource="http://purl.org/dc/dcmitype/StillImage" />
        <dc:title></dc:title>
      </cc:Work>
    </rdf:RDF>
  </metadata>
  <defs
     id="defs48">
    <filter
       style="color-interpolation-filters:sRGB"
       inkscape:label="Colorize"
       id="filter74">
      <feColorMatrix
         values="-1 0 0 0 1 0 -1 0 0 1 0 0 -1 0 1 -0.21 -0.72 -0.07 2 0 "
         result="fbSourceGraphic"
         id="feColorMatrix72" />
      <feColorMatrix
         result="fbSourceGraphicAlpha"
         in="fbSourceGraphic"
         values="0 0 0 -1 0 0 0 0 -1 0 0 0 0 -1 0 0 0 0 1 0"
         id="feColorMatrix76" />
      <feComposite
         in2="fbSourceGraphic"
         id="feComposite78"
         operator="arithmetic"
         k1="0.463936"
         k2="1"
         result="composite1"
         in="fbSourceGraphic"
         k3="0"
         k4="0" />
      <feColorMatrix
         id="feColorMatrix80"
         in="composite1"
         values="1"
         type="saturate"
         result="colormatrix1" />
      <feFlood
         id="feFlood82"
         flood-opacity="1"
         flood-color="rgb(0,177,255)"
         result="flood1" />
      <feBlend
         in2="colormatrix1"
         id="feBlend84"
         in="flood1"
         mode="multiply"
         result="blend1" />
      <feBlend
         in2="blend1"
         id="feBlend86"
         mode="screen"
         result="blend2" />
      <feColorMatrix
         id="feColorMatrix88"
         in="blend2"
         values="1"
         type="saturate"
         result="colormatrix2" />
      <feComposite
         in2="fbSourceGraphic"
         id="feComposite90"
         in="colormatrix2"
         operator="in"
         result="composite2" />
    </filter>
  </defs>
  <sodipodi:namedview
     pagecolor="#ffffff"
     bordercolor="#666666"
     borderopacity="1"
     objecttolerance="10"
     gridtolerance="10"
     guidetolerance="10"
     inkscape:pageopacity="0"
     inkscape:pageshadow="2"
     inkscape:window-width="1920"
     inkscape:window-height="1028"
     id="namedview46"
     showgrid="false"
     inkscape:zoom="5.0354005"
     inkscape:cx="53.013163"
     inkscape:cy="76.865304"
     inkscape:window-x="0"
     inkscape:window-y="0"
     inkscape:window-maximized="1"
     inkscape:current-layer="g52"
     inkscape:document-rotation="0" />
  <g
     inkscape:groupmode="layer"
     inkscape:label="Image"
     id="g52"
     transform="translate(-28.906835,-5.0546944)">
    <path
       style="fill:#000000;stroke-width:0.32;filter:url(#filter74)"
       d="m 101.77827,162.50498 c -9.897318,-1.17679 -13.849616,-2.31903 -23.004454,-6.64843 -21.375511,-10.10866 -25.66401,-20.419 -17.650762,-42.43568 3.628924,-8.8894 2.301815,-16.376791 1.782295,-24.798444 -0.751197,-12.480682 -3.745136,-12.719981 -7.849684,-0.627408 -1.661103,5.529051 -4.552098,11.01672 -6.44888,16.242522 -4.616406,12.79856 -10.303616,17.75324 -16.719974,14.56641 -3.762608,-1.86879 -3.750605,-5.56948 0.04336,-13.36893 5.680813,-12.083453 9.587709,-17.78609 13.210195,-35.548088 0.424227,-1.129591 0.737815,-3.414423 1.599191,-11.651914 1.544275,-14.768163 4.658722,-17.050322 15.32357,-19.048735 6.45079,-1.208768 7.317162,-6.130372 6.549898,-18.391265 C 67.917211,9.6759482 70.599359,7.902511 79.572776,7.4605709 c 9.16129,-0.451193 11.451286,0.7852137 11.000544,17.3344471 -0.291107,10.688128 0.947437,12.340714 5.39546,14.620176 10.81684,5.543267 14.3344,2.328149 14.38466,16.419824 0.0286,8.024272 1.69323,11.079638 4.71147,18.24 5.93124,14.071062 9.97045,21.480334 15.00843,26.587982 4.32719,4.38704 6.10101,5.60908 6.10101,9.5511 0,5.3979 -1.40777,6.85136 -8.72068,4.50882 -5.84504,-1.87233 -17.09539,-10.61457 -21.31126,-16.560209 -2.81167,-3.965299 -6.03252,-8.936829 -6.965293,-10.751264 -1.26866,-2.467827 -3.6517,-3.082301 -5.858789,-1.510714 -1.191171,0.848189 -2.462567,5.376151 -2.744499,9.774285 -0.652167,10.173852 -1.685252,14.951092 -4.63642,21.440002 -6.141548,13.50378 -6.116726,14.1485 0.830429,21.56944 8.230669,8.79198 15.695122,10.71744 26.688112,13.49723 9.10887,2.30335 16.57954,5.62891 6.8323,8.46102 -5.8441,1.69804 -13.45293,2.46356 -18.50998,1.86227 z"
       id="path56"
       sodipodi:nodetypes="ssccccsccssssssssssssssssssss" />
    <path
       style="fill:#000000;stroke-width:1.29058"
       d="M 78.876133,159.14385 C 57.016263,148.57152 51.741868,137.3799 58.884431,116.72389 62.081568,107.47794 62.654193,99.861768 60.993798,88.668591 L 60.122736,82.796542 53.864437,98.86656 c -7.173436,18.4199 -11.110365,23.72938 -17.595145,23.72938 -8.463795,0 -9.539638,-5.63615 -3.694454,-19.35476 7.027648,-16.493937 11.784224,-32.218635 12.980887,-42.91338 0.368498,-3.293465 0.892635,-6.685705 1.415453,-9.335237 0.413544,-2.095753 0.826262,-3.72682 1.160478,-4.476755 1.604073,-3.599137 7.40566,-7.433352 11.247459,-7.433352 1.471248,0 3.823729,-1.174408 5.227767,-2.609795 2.148138,-2.196092 2.552795,-4.349663 2.552795,-13.585434 0,-10.654044 0.115276,-11.074621 3.927118,-14.3538783 5.312329,-4.5698434 12.818027,-4.6463792 17.191445,-0.1753053 2.847641,2.9112156 3.134793,4.2482346 3.15254,14.6800996 0.01198,6.312444 0.44152,12.120374 0.957299,12.906514 0.515744,0.786136 3.221787,1.798415 6.013429,2.249507 6.147302,0.993328 11.154132,4.584819 12.317162,8.835317 0.47327,1.729537 0.91774,6.447208 0.98769,10.483714 0.23015,13.284504 8.51729,31.485921 19.49076,42.809315 7.50111,7.74031 8.71397,10.8787 6.11953,15.83472 -1.5935,3.04395 -8.23309,3.39256 -14.35557,0.75375 -7.15852,-3.08533 -16.84039,-11.96957 -22.0475,-20.231151 -2.769227,-4.393633 -5.479976,-7.993548 -6.02384,-7.99983 -1.630233,-0.01878 -3.060919,5.323962 -3.994448,14.916951 -0.533296,5.47996 -2.36959,12.52296 -4.650075,17.83484 -2.07283,4.82819 -3.768764,9.30841 -3.768764,9.95605 0,2.40366 9.330552,12.21355 14.645433,15.39785 3.022984,1.81114 9.149334,3.90447 13.614144,4.65183 10.742,1.79807 15.13795,3.62407 15.13795,6.28799 0,4.66023 -2.61239,5.32231 -20.99674,5.32125 -17.262248,-0.001 -18.235342,-0.14719 -26.001107,-3.90291 z m 37.424867,0.75924 5.10559,-1.63924 -5.10559,-1.51547 c -2.80808,-0.83346 -6.85957,-1.51874 -9.00327,-1.5227 -9.897196,-0.0203 -28.650471,-15.40049 -28.650471,-23.49996 0,-2.0003 1.713644,-7.75387 3.808094,-12.78569 2.371108,-5.69637 4.245139,-13.14206 4.966184,-19.730905 1.291716,-11.803296 2.71207,-14.455239 7.742076,-14.455239 2.834314,0 4.547997,1.654364 9.735807,9.398601 9.62164,14.363113 26.96877,25.261093 29.49536,18.529893 0.53508,-1.42558 -1.53308,-4.34059 -6.54494,-9.22481 C 117.09807,92.979623 109.36118,75.893489 108.05199,59.736036 106.93603,45.962886 105.36949,43.633981 96.019597,41.848228 92.606469,41.196355 89.320542,39.866976 88.71752,38.894058 88.114502,37.921133 87.612319,31.987073 87.60159,25.70725 87.585635,16.045651 87.189392,13.887961 85.029249,11.679597 81.767773,8.3452846 78.580926,8.373552 74.351981,11.77433 c -3.10775,2.499157 -3.364545,3.465165 -3.381936,12.722756 -0.02393,12.893006 -1.51301,15.794886 -9.439322,18.39868 -8.435355,2.771008 -10.597254,6.246106 -12.191276,19.596874 -1.369614,11.470956 -6.490403,28.435768 -13.100908,43.40244 -4.075897,9.22816 -4.012078,12.78617 0.229353,12.78617 3.526049,0 7.902738,-7.18793 13.507281,-22.183266 C 55.535442,81.62103 57.521079,78.22941 60.67051,78.22941 c 3.294503,0 4.054478,2.658763 4.849036,16.963673 0.607925,10.944887 0.295965,13.665077 -2.664879,23.229307 -4.003741,12.93355 -4.140556,16.26825 -0.887495,21.63567 4.672494,7.70935 22.220692,18.64078 33.273222,20.72707 6.130976,1.15731 15.995536,0.74415 21.060566,-0.88204 z"
       id="path70"
       sodipodi:nodetypes="csscssccscssscsccsccsssscssssssscccccsccscsscssccscscsscssccssc" />
  </g>
</svg>
