<?xml version="1.0" encoding="UTF-8" standalone="no"?>
<svg
   xmlns:dc="http://purl.org/dc/elements/1.1/"
   xmlns:cc="http://creativecommons.org/ns#"
   xmlns:rdf="http://www.w3.org/1999/02/22-rdf-syntax-ns#"
   xmlns:svg="http://www.w3.org/2000/svg"
   xmlns="http://www.w3.org/2000/svg"
   xmlns:sodipodi="http://sodipodi.sourceforge.net/DTD/sodipodi-0.dtd"
   xmlns:inkscape="http://www.inkscape.org/namespaces/inkscape"
   version="1.1"
   id="svg126"
   width="647.80511"
   height="762.19568"
   viewBox="0 0 647.80512 762.19568"
   sodipodi:docname="Soldier.svg"
   inkscape:version="1.0.1 (3bc2e813f5, 2020-09-07)">
  <metadata
     id="metadata132">
    <rdf:RDF>
      <cc:Work
         rdf:about="">
        <dc:format>image/svg+xml</dc:format>
        <dc:type
           rdf:resource="http://purl.org/dc/dcmitype/StillImage" />
        <dc:title></dc:title>
      </cc:Work>
    </rdf:RDF>
  </metadata>
  <defs
     id="defs130">
    <filter
       style="color-interpolation-filters:sRGB"
       inkscape:label="Colorize"
       id="filter158">
      <feColorMatrix
         values="-1 0 0 0 1 0 -1 0 0 1 0 0 -1 0 1 -0.21 -0.72 -0.07 2 0 "
         result="fbSourceGraphic"
         id="feColorMatrix156" />
      <feColorMatrix
         result="fbSourceGraphicAlpha"
         in="fbSourceGraphic"
         values="0 0 0 -1 0 0 0 0 -1 0 0 0 0 -1 0 0 0 0 1 0"
         id="feColorMatrix160" />
      <feComposite
         in2="fbSourceGraphic"
         id="feComposite162"
         operator="arithmetic"
         k1="0.463936"
         k2="1"
         result="composite1"
         in="fbSourceGraphic"
         k3="0"
         k4="0" />
      <feColorMatrix
         id="feColorMatrix164"
         in="composite1"
         values="1"
         type="saturate"
         result="colormatrix1" />
      <feFlood
         id="feFlood166"
         flood-opacity="1"
         flood-color="rgb(0,177,255)"
         result="flood1" />
      <feBlend
         in2="colormatrix1"
         id="feBlend168"
         in="flood1"
         mode="multiply"
         result="blend1" />
      <feBlend
         in2="blend1"
         id="feBlend170"
         mode="screen"
         result="blend2" />
      <feColorMatrix
         id="feColorMatrix172"
         in="blend2"
         values="1"
         type="saturate"
         result="colormatrix2" />
      <feComposite
         in2="fbSourceGraphic"
         id="feComposite174"
         in="colormatrix2"
         operator="in"
         result="composite2" />
    </filter>
  </defs>
  <sodipodi:namedview
     pagecolor="#ffffff"
     bordercolor="#666666"
     borderopacity="1"
     objecttolerance="10"
     gridtolerance="10"
     guidetolerance="10"
     inkscape:pageopacity="0"
     inkscape:pageshadow="2"
     inkscape:window-width="1920"
     inkscape:window-height="1028"
     id="namedview128"
     showgrid="false"
     inkscape:zoom="1.2084961"
     inkscape:cx="152.60893"
     inkscape:cy="397.82932"
     inkscape:window-x="0"
     inkscape:window-y="0"
     inkscape:window-maximized="1"
     inkscape:current-layer="g134" />
  <g
     inkscape:groupmode="layer"
     inkscape:label="Image"
     id="g134"
     transform="translate(-16.153772,45.575143)">
    <path
       style="fill:#000000;filter:url(#filter158)"
       d="m 181.06833,632.58558 c -8.40679,-8.50142 -8.40679,-8.50142 -8.61881,-15.32292 -1.3841,-12.14813 -1.01492,-24.56387 -5.33045,-35.74687 -4.32439,-6.38244 -6.86996,-11.28044 -8.14394,-12.44166 -0.25394,-0.23146 -20.07443,-20.70288 -44.60986,-45.24285 -50.980226,-50.98967 -44.488773,-42.64715 -43.351742,-64.39012 1.416205,-19.20869 3.022538,-35.12641 4.353131,-54 1.146233,-16.48989 -5.929965,-7.74229 60.108471,-74.3061 l 41,-41.32618 0.29477,-20.18386 0.29478,-20.18386 58.79755,-58.84128 59.74386,-53.85273 25.09424,-5.53005 21.76236,1.44108 13.3953,6.9541 c 6.23189,3.23525 9.11713,9.36443 9.11713,9.88724 0,0.52281 -18.83359,19.78015 -41.85241,42.79408 l -41.85241,41.84352 4.70611,4.40202 c 2.58837,2.42111 5.11651,4.40202 5.61809,4.40202 1.13469,0 83.48141,-82.91516 92.38062,-93.01832 9.74435,-11.06264 130.13843,-131.981679 131.4087,-131.981679 1.28042,0 94.5913,93.088089 94.5913,94.365459 0,0.80677 -25.46715,27.91863 -42,44.71242 -4.125,4.19011 -18.72411,19.27422 -32.44246,33.52025 -29.22033,30.34427 -59.21681,60.30582 -94.51195,94.40187 -13.94889,13.475 -31.99665,30.96204 -40.10614,38.86008 l -14.74452,14.36008 4.91573,4.88992 c 2.70365,2.68946 5.18555,4.88992 5.51534,4.88992 0.67293,0 25.96458,-24.22198 63.95487,-61.25 13.96625,-13.6125 25.74457,-24.75 26.17403,-24.75 0.42946,0 5.35538,4.6125 10.94648,10.25 l 10.16565,10.25 0.60185,22 0.60185,22 -21.82462,22.5 -21.82462,22.5 2.25853,5.5 c 5.84335,14.22977 0.94495,26.05574 -18.89316,45.61279 -11.96199,11.79253 -15.4786,14.18699 -23.78686,16.19651 -4.28702,1.0369 -24.27645,0.71759 -29,-0.46325 -8.48164,-2.53258 -18.57309,-4.69409 -26.07398,-7.89177 -0.64611,-0.39932 -15.5366,13.63383 -35.7665,33.7072 -34.65553,34.38739 -34.9809,34.66669 -51.46765,44.1804 -1.75553,1.01303 -3.53507,2.16623 -3.95453,2.56266 -1.25013,1.18148 -0.0546,51.86465 0.13884,59.44627 -0.89063,15.20533 -0.16895,30.89472 -1.37004,44.46699 -0.86092,9.96372 -3.35847,14.2213 -15.11428,25.76535 -22.10421,18.06864 -53.46969,17.73041 -81.29865,-7.93873 z"
       id="path140"
       sodipodi:nodetypes="cccssccscccccccssscssssssssscssssscccccsssccssscccc" />
    <path
       style="fill:#000000;stroke-width:5.52107"
       d="m 172.8556,641.97221 c -7.32442,-7.7296 -12.05644,-19.80701 -12.05644,-30.77145 0,-15.36591 -7.92706,-26.15942 -53.34099,-72.62881 -49.34098,-50.48783 -53.083267,-55.85831 -49.904359,-71.61645 1.890172,-9.3696 3.436621,-29.08999 3.436621,-43.82312 0,-26.23237 1.091536,-27.95071 52.676838,-82.92551 46.05571,-49.08184 52.67685,-58.5961 52.67685,-75.69411 0,-38.5112 110.2407,-137.5612 153.10293,-137.5612 33.86847,0 57.99419,12.63062 48.10414,25.18412 -2.18871,2.77816 29.65331,-27.72663 70.76013,-67.788433 41.10675,-40.061817 77.15196,-72.839663 80.10044,-72.839663 6.90252,0 102.61657,94.312206 102.61657,101.113626 0,2.82675 -31.69078,36.89307 -70.42389,75.70293 -38.73315,38.80989 -66.5673,70.56342 -61.85363,70.56342 32.69448,0 37.86548,64.29186 7.5166,93.45465 -14.28463,13.72634 -19.40722,23.33149 -19.40722,36.38928 0,38.18292 -43.67086,68.25946 -84.27559,58.04139 -23.27601,-5.85738 -23.27601,-5.85738 -66.04551,33.69031 l -42.7695,39.54769 -0.49097,55.38939 c -0.62867,70.9217 -4.27846,87.26047 -59.33719,87.26047 -30.57001,0 -40.87752,-9.91552 -51.08583,-20.68853 z m 84.66541,-10.48925 c 6.37913,-9.02924 8.63184,-26.20098 8.63184,-65.79766 v -53.57991 l 45.74567,-44.30147 c 45.16636,-43.74048 46.02655,-44.25433 67.92537,-40.5764 49.30174,8.28025 85.20172,-13.21641 77.80798,-46.5908 -2.69089,-12.14641 0.68588,-18.58979 19.06904,-36.38634 16.9983,-16.45594 22.33898,-25.88183 22.33898,-39.42671 0,-29.98102 -10.34489,-27.15396 -52.48142,14.34213 -31.06091,30.58873 -43.25965,39.2138 -53.43535,37.78131 -30.88015,-4.34715 -19.6995,-20.14748 94.31496,-133.28421 L 598.9381,113.02121 558.60159,73.297816 518.26505,33.574422 407.45753,143.63381 c -79.84026,79.30114 -113.89101,109.63298 -121.84077,108.53358 -23.09337,-3.19368 -15.85175,-21.32754 24.66649,-61.76789 43.22205,-43.13894 44.60716,-56.25377 5.18152,-49.06031 -31.01062,5.65809 -132.47172,108.20132 -132.52866,133.94215 -0.0374,16.79495 -6.86633,26.58035 -51.91571,74.38901 -51.872931,55.05011 -51.872931,55.05011 -54.619208,90.70598 l -2.746238,35.65587 51.889516,53.30144 c 43.74803,44.93842 51.88949,56.09571 51.88949,71.11101 0,38.86998 58.52858,61.55317 80.08705,31.03831 z"
       id="path176"
       sodipodi:nodetypes="sssssssssssssssssscssssscsssssssscccsssscsscsss" />
  </g>
</svg>
