<?xml version="1.0" encoding="UTF-8" standalone="no"?>
<svg
   xmlns:dc="http://purl.org/dc/elements/1.1/"
   xmlns:cc="http://creativecommons.org/ns#"
   xmlns:rdf="http://www.w3.org/1999/02/22-rdf-syntax-ns#"
   xmlns:svg="http://www.w3.org/2000/svg"
   xmlns="http://www.w3.org/2000/svg"
   xmlns:sodipodi="http://sodipodi.sourceforge.net/DTD/sodipodi-0.dtd"
   xmlns:inkscape="http://www.inkscape.org/namespaces/inkscape"
   version="1.1"
   id="svg126"
   width="512"
   height="512"
   viewBox="0 0 512 512"
   sodipodi:docname="Soldier.svg"
   inkscape:version="1.0.1 (3bc2e813f5, 2020-09-07)">
  <metadata
     id="metadata132">
    <rdf:RDF>
      <cc:Work
         rdf:about="">
        <dc:format>image/svg+xml</dc:format>
        <dc:type
           rdf:resource="http://purl.org/dc/dcmitype/StillImage" />
        <dc:title></dc:title>
      </cc:Work>
    </rdf:RDF>
  </metadata>
  <defs
     id="defs130">
    <filter
       style="color-interpolation-filters:sRGB"
       inkscape:label="Colorize"
       id="filter158">
      <feColorMatrix
         values="-1 0 0 0 1 0 -1 0 0 1 0 0 -1 0 1 -0.21 -0.72 -0.07 2 0 "
         result="fbSourceGraphic"
         id="feColorMatrix156" />
      <feColorMatrix
         result="fbSourceGraphicAlpha"
         in="fbSourceGraphic"
         values="0 0 0 -1 0 0 0 0 -1 0 0 0 0 -1 0 0 0 0 1 0"
         id="feColorMatrix160" />
      <feComposite
         in2="fbSourceGraphic"
         id="feComposite162"
         operator="arithmetic"
         k1="0.463936"
         k2="1"
         result="composite1"
         in="fbSourceGraphic"
         k3="0"
         k4="0" />
      <feColorMatrix
         id="feColorMatrix164"
         in="composite1"
         values="1"
         type="saturate"
         result="colormatrix1" />
      <feFlood
         id="feFlood166"
         flood-opacity="1"
         flood-color="rgb(0,177,255)"
         result="flood1" />
      <feBlend
         in2="colormatrix1"
         id="feBlend168"
         in="flood1"
         mode="multiply"
         result="blend1" />
      <feBlend
         in2="blend1"
         id="feBlend170"
         mode="screen"
         result="blend2" />
      <feColorMatrix
         id="feColorMatrix172"
         in="blend2"
         values="1"
         type="saturate"
         result="colormatrix2" />
      <feComposite
         in2="fbSourceGraphic"
         id="feComposite174"
         in="colormatrix2"
         operator="in"
         result="composite2" />
    </filter>
  </defs>
  <sodipodi:namedview
     pagecolor="#ffffff"
     bordercolor="#666666"
     borderopacity="1"
     objecttolerance="10"
     gridtolerance="10"
     guidetolerance="10"
     inkscape:pageopacity="0"
     inkscape:pageshadow="2"
     inkscape:window-width="1920"
     inkscape:window-height="1028"
     id="namedview128"
     showgrid="false"
     inkscape:zoom="1.2084961"
     inkscape:cx="241.51461"
     inkscape:cy="323.5648"
     inkscape:window-x="0"
     inkscape:window-y="0"
     inkscape:window-maximized="1"
     inkscape:current-layer="g134"
     inkscape:document-rotation="0" />
  <g
     inkscape:groupmode="layer"
     inkscape:label="Image"
     id="g134"
     transform="translate(-16.153772,45.575143)">
    <path
       style="fill:#000000;filter:url(#filter158)"
       d="m 181.06833,632.58558 c -8.40679,-8.50142 -8.40679,-8.50142 -8.61881,-15.32292 -1.3841,-12.14813 -1.01492,-24.56387 -5.33045,-35.74687 -4.32439,-6.38244 -6.86996,-11.28044 -8.14394,-12.44166 -0.25394,-0.23146 -20.07443,-20.70288 -44.60986,-45.24285 -50.980226,-50.98967 -44.488773,-42.64715 -43.351742,-64.39012 1.416205,-19.20869 3.022538,-35.12641 4.353131,-54 1.146233,-16.48989 -5.929965,-7.74229 60.108471,-74.3061 l 41,-41.32618 0.29477,-20.18386 0.29478,-20.18386 58.79755,-58.84128 59.74386,-53.85273 25.09424,-5.53005 21.76236,1.44108 13.3953,6.9541 c 6.23189,3.23525 9.11713,9.36443 9.11713,9.88724 0,0.52281 -18.83359,19.78015 -41.85241,42.79408 l -41.85241,41.84352 4.70611,4.40202 c 2.58837,2.42111 5.11651,4.40202 5.61809,4.40202 1.13469,0 83.48141,-82.91516 92.38062,-93.01832 9.74435,-11.06264 130.13843,-131.981679 131.4087,-131.981679 1.28042,0 94.5913,93.088089 94.5913,94.365459 0,0.80677 -25.46715,27.91863 -42,44.71242 -4.125,4.19011 -18.72411,19.27422 -32.44246,33.52025 -29.22033,30.34427 -59.21681,60.30582 -94.51195,94.40187 -13.94889,13.475 -31.99665,30.96204 -40.10614,38.86008 l -14.74452,14.36008 4.91573,4.88992 c 2.70365,2.68946 5.18555,4.88992 5.51534,4.88992 0.67293,0 25.96458,-24.22198 63.95487,-61.25 13.96625,-13.6125 25.74457,-24.75 26.17403,-24.75 0.42946,0 5.35538,4.6125 10.94648,10.25 l 10.16565,10.25 0.60185,22 0.60185,22 -21.82462,22.5 -21.82462,22.5 2.25853,5.5 c 5.84335,14.22977 0.94495,26.05574 -18.89316,45.61279 -11.96199,11.79253 -15.4786,14.18699 -23.78686,16.19651 -4.28702,1.0369 -24.27645,0.71759 -29,-0.46325 -8.48164,-2.53258 -18.57309,-4.69409 -26.07398,-7.89177 -0.64611,-0.39932 -15.5366,13.63383 -35.7665,33.7072 -34.65553,34.38739 -34.9809,34.66669 -51.46765,44.1804 -1.75553,1.01303 -3.53507,2.16623 -3.95453,2.56266 -1.25013,1.18148 -0.0546,51.86465 0.13884,59.44627 -0.89063,15.20533 -0.16895,30.89472 -1.37004,44.46699 -0.86092,9.96372 -3.35847,14.2213 -15.11428,25.76535 -22.10421,18.06864 -53.46969,17.73041 -81.29865,-7.93873 z"
       id="path140"
       sodipodi:nodetypes="cccssccscccccccssscssssssssscssssscccccsssccssscccc"
       transform="matrix(0.74880838,0,0,0.74880838,8.88713,-30.764659)" />
    <path
       style="fill:#000000;stroke-width:4.13422"
       d="m 138.32287,449.94952 c -5.48459,-5.78799 -9.02797,-14.83166 -9.02797,-23.04192 0,-11.50613 -5.93585,-19.58839 -39.942183,-54.38506 -36.946946,-37.80572 -39.749199,-41.82718 -37.368808,-53.627 1.415372,-7.01604 2.573368,-21.78283 2.573368,-32.81513 0,-19.64301 0.817357,-20.92971 39.44486,-62.09531 34.486913,-36.75289 39.444883,-43.87724 39.444883,-56.68039 0,-28.83749 82.54915,-103.006982 114.64475,-103.006982 25.36099,0 43.42653,9.45792 36.02079,18.858084 -1.63894,2.080315 22.20464,-20.761928 52.98577,-50.76055 30.78108,-29.9986249 57.77203,-54.542943 59.97988,-54.542943 5.16866,0 76.84014,70.621769 76.84014,75.714732 0,2.116692 -23.73031,27.625842 -52.73399,56.686989 -29.00371,29.06118 -49.84616,52.83848 -46.31651,52.83848 24.48189,0 28.35397,48.14228 5.62849,69.97963 -10.69645,10.2784 -14.53229,17.47081 -14.53229,27.2486 0,28.59168 -32.70111,51.11326 -63.10627,43.46188 -17.42927,-4.38606 -17.42927,-4.38606 -49.45543,25.22758 l -32.02616,29.61364 -0.36765,41.47604 c -0.47075,53.10677 -3.20374,65.34137 -44.43219,65.34137 -22.89107,0 -30.60941,-7.42482 -38.25348,-15.49174 z m 63.39816,-7.85444 c 4.77674,-6.76117 6.46359,-19.61952 6.46359,-49.26984 v -40.12108 l 34.25474,-33.17331 c 33.82096,-32.75324 34.46507,-33.13802 50.86309,-30.38395 36.91756,6.20032 63.79976,-9.89657 58.26327,-34.88759 -2.01496,-9.09532 0.51359,-13.92019 14.27905,-27.24639 12.72847,-12.32234 16.72762,-19.38053 16.72762,-29.52305 0,-22.45004 -7.74634,-20.33312 -39.29852,10.7395 -23.25867,22.90511 -32.39319,29.36363 -40.01285,28.29097 -23.12331,-3.25519 -14.75115,-15.08661 70.62383,-99.80434 L 457.37701,53.866574 427.17269,24.121363 396.96835,-5.6238484 313.99475,76.789539 c -59.78506,59.381371 -85.28254,82.094101 -91.23539,81.270861 -17.2925,-2.39145 -11.86992,-15.97024 18.47048,-46.25231 32.36502,-32.302803 33.40222,-42.123307 3.87997,-36.736783 -23.22102,4.236828 -99.19593,81.022073 -99.23857,100.297023 -0.0281,12.5762 -5.14158,19.90358 -38.87492,55.70311 -38.842904,41.22199 -38.842904,41.22199 -40.89934,67.92139 l -2.056405,26.69942 38.855315,39.91256 c 32.75889,33.65026 38.85529,42.00494 38.85529,53.24852 0,29.10618 43.82669,46.09153 59.96985,23.24175 z"
       id="path176"
       sodipodi:nodetypes="sssssssssssssssssscssssscsssssssscccsssscsscsss" />
  </g>
</svg>
